<svg width="70" height="70" viewBox="0 0 70 70" fill="none" xmlns="http://www.w3.org/2000/svg">
<path d="M35.0015 0C15.7013 0 0.000732422 15.6998 0.000732422 34.9985C0.000732422 54.2987 15.702 70 35.0007 70C54.2987 70 69.9985 54.2987 69.9985 34.9985C69.9993 15.7005 54.2995 0 35.0015 0ZM3.53274 34.9985C3.53274 30.4373 4.51102 26.1053 6.25738 22.1928L21.2684 63.32C10.772 58.2184 3.53274 47.4544 3.53274 34.9985ZM35.0015 66.4687C31.9124 66.4687 28.931 66.0156 26.1118 65.1864L35.5528 37.7516L45.2272 64.251C45.2898 64.4074 45.3662 64.55 45.4513 64.6845C42.1804 65.8352 38.6658 66.4687 35.0015 66.4687ZM39.3372 20.245C41.2312 20.1454 42.9397 19.9453 42.9397 19.9453C44.6345 19.7446 44.4359 17.2534 42.7383 17.3531C42.7383 17.3531 37.6417 17.7524 34.3505 17.7524C31.2593 17.7524 26.0616 17.3531 26.0616 17.3531C24.3654 17.2534 24.1676 19.8457 25.8631 19.9453C25.8631 19.9453 27.469 20.1454 29.163 20.245L34.0654 33.6784L27.1788 54.3315L15.7216 20.2457C17.6186 20.1468 19.3235 19.9461 19.3235 19.9461C21.0182 19.746 20.8182 17.2534 19.1213 17.3553C19.1213 17.3553 14.0269 17.7546 10.7349 17.7546C10.1436 17.7546 9.44753 17.7393 8.71 17.7167C14.3353 9.17259 24.0083 3.532 35.0015 3.532C43.195 3.532 50.6533 6.66396 56.2509 11.7925C56.1149 11.7852 55.9833 11.767 55.8422 11.767C52.7524 11.767 50.5587 14.4597 50.5587 17.3523C50.5587 19.9446 52.0534 22.1398 53.6485 24.732C54.8464 26.8282 56.2429 29.5216 56.2429 33.4107C56.2429 36.1048 55.2086 39.2295 53.8478 43.5834L50.7093 54.0725L39.3372 20.245ZM50.8206 62.1999L60.4325 34.4094C62.2297 29.9209 62.8254 26.3315 62.8254 23.1377C62.8254 21.9805 62.7498 20.9047 62.613 19.9017C65.0715 24.3843 66.4702 29.5289 66.4687 35C66.468 46.6085 60.175 56.7448 50.8206 62.1999Z" fill="white"/>
</svg>
