<svg width="62" height="71" viewBox="0 0 62 71" fill="none" xmlns="http://www.w3.org/2000/svg">
<path d="M56.4643 3.46425H52.3347C51.7232 3.46425 51.2275 3.95998 51.2275 4.57139C51.2275 5.18281 51.7232 5.67854 52.3347 5.67854H56.4643C58.2958 5.67854 59.7857 7.16842 59.7857 8.99996V46.6428H56.4643V10.1071C56.4643 9.49569 55.9686 8.99996 55.3571 8.99996H52.8217C52.2103 8.99996 51.7146 9.49569 51.7146 10.1071C51.7146 10.7185 52.2103 11.2143 52.8217 11.2143H54.25V46.6428H7.75V11.2143H20.2497C20.8611 11.2143 21.3568 10.7185 21.3568 10.1071C21.3568 9.49569 20.8611 8.99996 20.2497 8.99996H6.64286C6.03144 8.99996 5.53571 9.49569 5.53571 10.1071V46.6428H2.21429V8.99996C2.21429 7.16842 3.70417 5.67854 5.53571 5.67854H20.7368C21.3482 5.67854 21.8439 5.18281 21.8439 4.57139C21.8439 3.95998 21.3482 3.46425 20.7368 3.46425H5.53571C2.4835 3.46425 0 5.94775 0 8.99996V52.1785C0 55.2307 2.4835 57.7142 5.53571 57.7142H22.939L21.2783 64.3571H19.9286C18.097 64.3571 16.6071 65.847 16.6071 67.6785V68.7857H14.3929C13.7814 68.7857 13.2857 69.2814 13.2857 69.8928C13.2857 70.5042 13.7814 71 14.3929 71H47.6071C48.2186 71 48.7143 70.5042 48.7143 69.8928C48.7143 69.2814 48.2186 68.7857 47.6071 68.7857H45.3929V67.6785C45.3929 65.847 43.903 64.3571 42.0714 64.3571H40.7217L39.061 57.7142H56.4643C59.5165 57.7142 62 55.2307 62 52.1785V8.99996C62 5.94775 59.5165 3.46425 56.4643 3.46425ZM43.1786 67.6785V68.7857H18.8214V67.6785C18.8214 67.0682 19.3182 66.5714 19.9286 66.5714H42.0714C42.6818 66.5714 43.1786 67.0682 43.1786 67.6785ZM38.4392 64.3571H23.5608L25.2216 57.7142H29.8929V59.9285C29.8929 60.5399 30.3886 61.0357 31 61.0357C31.6114 61.0357 32.1071 60.5399 32.1071 59.9285V57.7142H36.7784L38.4392 64.3571ZM59.7857 52.1785C59.7857 54.0101 58.2958 55.5 56.4643 55.5H5.53571C3.70417 55.5 2.21429 54.0101 2.21429 52.1785V48.8571H59.7857V52.1785ZM22.391 11.1186L23.2543 1.15428C23.3035 0.582328 23.7825 0.142822 24.3571 0.142822H48.7143C49.2884 0.142822 49.7674 0.581787 49.8171 1.15428L52.0314 26.6186C52.0584 26.9272 51.9541 27.2338 51.7449 27.4624C51.5351 27.6911 51.2389 27.8214 50.9286 27.8214H33.8787C33.2673 27.8214 32.7715 27.3257 32.7715 26.7142C32.7715 26.1028 33.2673 25.6071 33.8787 25.6071H49.7209L47.699 2.35711H25.3724L24.5966 11.3099C24.5442 11.9181 24.0122 12.3814 23.3981 12.3171C22.7889 12.2646 22.338 11.7278 22.391 11.1186ZM33.2143 6.78568V8.99996C33.2143 10.8315 34.7042 12.3214 36.5357 12.3214C38.3673 12.3214 39.8571 10.8315 39.8571 8.99996V6.78568C39.8571 6.17426 40.3529 5.67854 40.9643 5.67854C41.5757 5.67854 42.0714 6.17426 42.0714 6.78568V8.99996C42.0714 12.0522 39.5879 14.5357 36.5357 14.5357C33.4835 14.5357 31 12.0522 31 8.99996V6.78568C31 6.17426 31.4957 5.67854 32.1071 5.67854C32.7186 5.67854 33.2143 6.17426 33.2143 6.78568ZM28.7857 13.4285H13.2857C12.7348 13.4285 12.2678 13.8334 12.1899 14.3789L9.97564 29.8789C9.93023 30.1968 10.0248 30.5184 10.2351 30.7612C10.4454 31.0033 10.7503 31.1428 11.0714 31.1428H31C31.3211 31.1428 31.626 31.0033 31.8363 30.7612C32.0466 30.5184 32.1412 30.1968 32.0958 29.8789L29.8815 14.3789C29.8037 13.8334 29.3366 13.4285 28.7857 13.4285ZM12.3478 28.9285L14.2458 15.6428H27.8256L29.7236 28.9285H12.3478ZM24.3571 20.0714V21.1785C24.3571 23.0101 22.8673 24.5 21.0357 24.5C19.2042 24.5 17.7143 23.0101 17.7143 21.1785V20.0714C17.7143 19.46 18.21 18.9643 18.8214 18.9643C19.4328 18.9643 19.9286 19.46 19.9286 20.0714V21.1785C19.9286 21.7889 20.4254 22.2857 21.0357 22.2857C21.646 22.2857 22.1429 21.7889 22.1429 21.1785V20.0714C22.1429 19.46 22.6386 18.9643 23.25 18.9643C23.8614 18.9643 24.3571 19.46 24.3571 20.0714ZM50.9286 36.6785H11.0714C10.46 36.6785 9.96428 36.1828 9.96428 35.5714C9.96428 34.96 10.46 34.4642 11.0714 34.4642H50.9286C51.54 34.4642 52.0357 34.96 52.0357 35.5714C52.0357 36.1828 51.54 36.6785 50.9286 36.6785ZM38.75 40C39.3614 40 39.8571 40.4957 39.8571 41.1071C39.8571 41.7185 39.3614 42.2142 38.75 42.2142H11.0714C10.46 42.2142 9.96428 41.7185 9.96428 41.1071C9.96428 40.4957 10.46 40 11.0714 40H38.75Z" fill="white"/>
</svg>
