<svg xmlns="http://www.w3.org/2000/svg" viewBox="0 0 59 59" width="59" height="59">
  <path d="M55.722 8.74h-3.278V0H6.556v8.74H3.278C1.42 8.74 0 10.162 0 12.019v29.5c0 1.858 1.42 3.278 3.278 3.278H21.96l-.874 7.648h-1.42c-3.06 0-5.463 2.404-5.463 5.463V59h30.592v-1.093c0-3.059-2.403-5.463-5.463-5.463h-1.42l-.874-7.648h18.683c1.858 0 3.278-1.42 3.278-3.277v-29.5c0-1.858-1.42-3.278-3.278-3.278Zm0 2.186c.656 0 1.093.437 1.093 1.092v26.223h-4.37V10.926h3.277ZM40.644 22.18h-1.092v2.185h1.092v1.092H38.46v2.186h2.185v1.092h-1.092v2.185h1.092v1.093H38.46v2.185h2.185v1.093h-1.092v2.185h1.092v.765h-3.277V21.306h3.277v.874Zm-5.462-3.06v19.12h-1.858V24.803l-3.824-6.12-3.824 6.119V38.24H22.18l.327-11.145c.656-.655 1.202-1.53 1.311-2.622.219-2.404-1.092-4.152-2.294-5.9a10.825 10.825 0 0 1-1.202-1.857l-.765-1.311-.983 1.092c-.11.11-2.731 3.06-3.606 6.119-.437 1.31-.109 2.731.765 3.933.11.218.328.328.437.546l.11 11.145H8.74V6.556h41.52V38.24h-7.43V19.12h-7.648Zm-4.043 7.867H27.86v-1.53l1.639-2.622 1.639 2.622v1.53Zm-3.278 2.185h3.278v9.069H27.86v-9.069Zm-6.228-4.916c-.109 1.092-1.201 1.966-2.403 1.966-.765 0-1.53-.328-1.967-.983-.437-.546-.546-1.311-.328-1.967.437-1.53 1.53-3.059 2.295-4.152.218.219.327.437.546.656.983 1.639 1.967 2.95 1.857 4.48Zm-2.403 4.151c.327 0 .655 0 .983-.109l-.219 9.943h-1.42l-.328-9.943c.328.11.656.11.984.11ZM50.26 2.185V4.37H8.74V2.185h41.52Zm-46.982 8.74h3.278v27.316h-4.37V12.018c0-.655.436-1.092 1.092-1.092Zm39.115 45.89H16.607c.437-1.311 1.64-2.185 3.06-2.185h19.666c1.42 0 2.623.874 3.06 2.185Zm-6.665-4.37H23.272l.874-7.649h10.598l.984 7.648Zm19.994-9.834H3.278c-.656 0-1.093-.437-1.093-1.092v-1.093h54.63v1.093c0 .655-.437 1.092-1.093 1.092Z"/>
</svg>
