<svg width="80" height="74" viewBox="0 0 80 74" fill="none" xmlns="http://www.w3.org/2000/svg">
<path d="M30.8875 61.18H3.0375V17.6425H68.8625V23.2175C68.8625 24.055 69.5375 24.7425 70.3875 24.7425C71.225 24.7425 71.9125 24.0675 71.9125 23.2175V1.94248C71.9125 1.10498 71.2375 0.41748 70.3875 0.41748H1.525C0.675 0.42998 0 1.10498 0 1.94248V62.705C0 63.5425 0.675 64.23 1.525 64.23H30.8875C31.725 64.23 32.4125 63.555 32.4125 62.705C32.4125 61.855 31.725 61.18 30.8875 61.18ZM3.0375 3.46748H68.8625V14.605H3.0375V3.46748Z" fill="white"/>
<path d="M13.6749 7.51758H8.6124C7.7749 7.51758 7.0874 8.19258 7.0874 9.04258C7.0874 9.88008 7.7624 10.5676 8.6124 10.5676H13.6749C14.5124 10.5676 15.1999 9.89258 15.1999 9.04258C15.1874 8.19258 14.5124 7.51758 13.6749 7.51758Z" fill="white"/>
<path d="M24.8126 7.51758H19.7501C18.9126 7.51758 18.2251 8.19258 18.2251 9.04258C18.2251 9.88008 18.9001 10.5676 19.7501 10.5676H24.8126C25.6501 10.5676 26.3376 9.89258 26.3376 9.04258C26.3251 8.19258 25.6501 7.51758 24.8126 7.51758Z" fill="white"/>
<path d="M55.7 38.905C50.1125 38.905 45.575 43.4425 45.575 49.03C45.575 54.6175 50.1125 59.155 55.7 59.155C61.2875 59.155 65.825 54.6175 65.825 49.03C65.825 43.4425 61.2875 38.905 55.7 38.905ZM55.7 56.1175C51.7875 56.1175 48.6125 52.9425 48.6125 49.03C48.6125 45.1175 51.7875 41.9425 55.7 41.9425C59.6125 41.9425 62.7875 45.1175 62.7875 49.03C62.7875 52.9425 59.6125 56.1175 55.7 56.1175Z" fill="white"/>
<path d="M78.6998 43.6175L72.9123 42.7425C72.6123 41.83 72.2498 40.955 71.8248 40.105L75.3123 35.38C75.7873 34.7675 75.7248 33.8925 75.1623 33.355L70.3373 28.53C69.7998 27.9675 68.9248 27.905 68.3123 28.38L63.5998 31.855C62.7498 31.4425 61.8748 31.105 60.9748 30.8175L60.0998 25.0425C59.9998 24.2925 59.3623 23.73 58.5998 23.73H51.7748C51.0248 23.73 50.3873 24.28 50.2748 25.03L49.3998 30.8175C48.4873 31.1175 47.5998 31.48 46.7373 31.9175L42.0248 28.4425C41.4123 27.9675 40.5373 28.03 39.9998 28.5925L35.1748 33.4175C34.6123 33.955 34.5498 34.83 35.0248 35.4425L38.5123 40.1675C38.0998 40.9925 37.7498 41.855 37.4623 42.7425L31.6498 43.6175C30.9123 43.7425 30.3748 44.3675 30.3748 45.1175V51.9425C30.3748 52.6925 30.9248 53.33 31.6748 53.4425L37.5123 54.3175C37.8123 55.205 38.1748 56.08 38.5998 56.905L35.0873 61.6675C34.6123 62.28 34.6748 63.155 35.2373 63.6925L40.0623 68.5175C40.5998 69.08 41.4748 69.1425 42.0873 68.6675L46.8623 65.1425C47.6873 65.555 48.5498 65.9175 49.4373 66.205L50.3248 72.08C50.4498 72.7925 51.0498 73.3175 51.7748 73.33H58.5998C59.3498 73.33 59.9873 72.78 60.0998 72.03L60.9873 66.155C61.8748 65.8675 62.7248 65.505 63.5623 65.0925L68.3373 68.6175C68.9498 69.0925 69.8248 69.03 70.3623 68.4675L75.1873 63.6425C75.7498 63.105 75.8123 62.23 75.3373 61.6175L71.8248 56.855C72.2498 56.03 72.6123 55.18 72.9123 54.305L78.7498 53.43C79.4748 53.2925 79.9998 52.6675 79.9998 51.93V45.105C79.9998 44.3675 79.4498 43.73 78.6998 43.6175ZM76.9623 50.63L71.4623 51.455C70.8623 51.5425 70.3873 51.98 70.2248 52.555C69.8748 53.855 69.3498 55.105 68.6748 56.2675C68.3748 56.7925 68.4123 57.4425 68.7623 57.93L72.0748 62.4175L69.0998 65.3925L64.5873 62.0675C64.0998 61.705 63.4498 61.68 62.9248 61.98C61.7623 62.6425 60.5248 63.1675 59.2248 63.505C58.6498 63.6675 58.2123 64.1425 58.1248 64.7425L57.2873 70.28H53.0748L52.2373 64.7425C52.1498 64.1425 51.7123 63.6675 51.1373 63.505C49.8498 63.155 48.5998 62.6425 47.4373 61.98C46.9123 61.68 46.2623 61.7175 45.7748 62.0675L41.2623 65.3925L38.2873 62.4175L41.6123 57.93C41.9748 57.4425 41.9998 56.7925 41.6998 56.2675C41.0248 55.105 40.4998 53.855 40.1498 52.555C39.9873 51.98 39.5123 51.5425 38.9123 51.455L33.4123 50.63V46.4175L38.8873 45.5925C39.4873 45.505 39.9748 45.0675 40.1373 44.48C40.4873 43.1675 41.0123 41.905 41.6873 40.7175C41.9873 40.1925 41.9498 39.5425 41.5998 39.055L38.3248 34.605L41.2998 31.63L45.7373 34.905C46.2248 35.2675 46.8748 35.2925 47.3998 34.9925C48.5873 34.305 49.8498 33.78 51.1748 33.4175C51.7623 33.2675 52.1998 32.7675 52.2873 32.1675L53.0873 26.7425H57.2998L58.1248 32.18C58.2123 32.78 58.6498 33.2675 59.2373 33.43C60.5623 33.78 61.8248 34.3175 63.0123 35.005C63.5373 35.305 64.1873 35.28 64.6748 34.9175L69.1123 31.6425L72.0873 34.6175L68.8123 39.0675C68.4498 39.555 68.4248 40.205 68.7248 40.73C69.3998 41.905 69.9248 43.1675 70.2748 44.4925C70.4248 45.08 70.9248 45.5175 71.5248 45.605L76.9998 46.43L76.9623 50.63Z" fill="white"/>
</svg>
