<svg width="69" height="71" viewBox="0 0 69 71" fill="none" xmlns="http://www.w3.org/2000/svg">
<path d="M28.9734 46.274C31.5396 43.8734 33.278 40.7278 33.6091 37.1682H34.5196C35.2647 37.1682 35.8441 36.5888 35.8441 35.8438C35.8441 35.0987 35.2647 34.5193 34.5196 34.5193H33.6091C33.0296 27.8141 27.6489 22.5162 21.0265 21.8539V21.0261C21.0265 20.2811 20.4471 19.7017 19.702 19.7017C18.957 19.7017 18.3776 20.2811 18.3776 21.0261V21.8539C11.6724 22.5162 6.37446 27.8141 5.795 34.5193H4.88442C4.1394 34.5193 3.55994 35.0987 3.55994 35.8438C3.55994 36.5888 4.1394 37.1682 4.88442 37.1682H5.795C6.12612 40.7278 7.8645 43.9562 10.3479 46.1913L10.4307 46.274C12.6657 48.2608 15.4803 49.4197 18.3776 49.7508V50.6614C18.3776 51.4064 18.957 51.9859 19.702 51.9859C20.4471 51.9859 21.0265 51.4064 21.0265 50.6614V49.7508C23.9238 49.5025 26.7383 48.2608 28.9734 46.274ZM8.36118 35.8438C8.36118 29.5525 13.4108 24.5029 19.702 24.5029C25.9933 24.5029 31.0429 29.5525 31.0429 35.8438C31.0429 38.2444 30.2979 40.3967 29.0562 42.2178C28.4767 40.2311 27.3178 38.5755 25.8278 37.251C26.3244 36.2577 26.6556 35.1815 26.6556 34.0226C26.6556 30.2147 23.5099 27.0691 19.702 27.0691C15.8942 27.0691 12.7485 30.2147 12.7485 34.0226C12.7485 35.1815 13.0796 36.2577 13.5763 37.251C12.0035 38.4927 10.8446 40.2311 10.3479 42.2178C9.02342 40.3967 8.36118 38.1616 8.36118 35.8438ZM15.3975 34.0226C15.3975 31.622 17.3014 29.718 19.702 29.718C22.1027 29.718 24.0066 31.622 24.0066 34.0226C24.0066 36.4232 22.1027 38.3272 19.702 38.3272C17.3014 38.3272 15.3975 36.4232 15.3975 34.0226ZM15.2319 39.3205C16.4736 40.3139 17.9637 40.9761 19.702 40.9761C21.4404 40.9761 22.9305 40.3967 24.1722 39.3205C25.745 40.5622 26.7383 42.5489 26.8211 44.7012C24.8344 46.274 22.351 47.1846 19.702 47.1846C17.0531 47.1846 14.6525 46.274 12.583 44.7012C12.6657 42.5489 13.6591 40.645 15.2319 39.3205Z" fill="white"/>
<path d="M57.6978 6.62233L56.7872 7.53291C56.2905 8.02959 56.2905 8.85739 56.7872 9.43685C57.0356 9.68519 57.3667 9.85075 57.6978 9.85075C58.0289 9.85075 58.36 9.68519 58.6084 9.43685L59.519 8.52627L60.4295 9.43685C60.6779 9.68519 61.009 9.85075 61.3401 9.85075C61.6712 9.85075 62.0024 9.68519 62.2507 9.43685C62.7474 8.94017 62.7474 8.11237 62.2507 7.53291L61.3401 6.62233L62.2507 5.71175C62.7474 5.21507 62.7474 4.38727 62.2507 3.80781C61.754 3.31113 60.9262 3.31113 60.3468 3.80781L59.4362 4.71839L58.5256 3.80781C58.0289 3.31113 57.2011 3.31113 56.6217 3.80781C56.125 4.30449 56.125 5.13229 56.6217 5.71175L57.6978 6.62233Z" fill="white"/>
<path d="M38.4096 47.6812H33.1117C32.3667 47.6812 31.7872 48.2606 31.7872 49.0056C31.7872 49.7507 32.3667 50.3301 33.1117 50.3301H38.4096C39.1546 50.3301 39.7341 49.7507 39.7341 49.0056C39.7341 48.2606 39.1546 47.6812 38.4096 47.6812Z" fill="white"/>
<path d="M38.4101 52.9792H27.8142C27.0692 52.9792 26.4897 53.5587 26.4897 54.3037C26.4897 55.0487 27.0692 55.6282 27.8142 55.6282H38.4101C39.1551 55.6282 39.7345 55.0487 39.7345 54.3037C39.7345 53.5587 39.1551 52.9792 38.4101 52.9792Z" fill="white"/>
<path d="M34.9335 43.7078C34.9335 44.4528 35.5129 45.0323 36.258 45.0323H38.4102C39.1553 45.0323 39.7347 44.4528 39.7347 43.7078C39.7347 42.9628 39.1553 42.3833 38.4102 42.3833H36.258C35.5129 42.3833 34.9335 42.9628 34.9335 43.7078Z" fill="white"/>
<path d="M41.7213 23.013H62.168C62.913 23.013 63.4925 22.4335 63.4925 21.6885C63.4925 20.9435 62.913 20.364 62.168 20.364H41.7213C40.9763 20.364 40.3969 20.9435 40.3969 21.6885C40.3969 22.4335 40.9763 23.013 41.7213 23.013Z" fill="white"/>
<path d="M41.7213 27.3174H62.168C62.913 27.3174 63.4925 26.738 63.4925 25.9929C63.4925 25.2479 62.913 24.6685 62.168 24.6685H41.7213C40.9763 24.6685 40.3969 25.2479 40.3969 25.9929C40.3969 26.738 40.9763 27.3174 41.7213 27.3174Z" fill="white"/>
<path d="M67.5485 15.8938H66.224V1.32448C66.224 0.57946 65.6445 0 64.8995 0H54.3037H1.32448C0.57946 0 0 0.57946 0 1.32448V59.6016C0 60.3466 0.57946 60.9261 1.32448 60.9261H44.0389V64.32C44.0389 67.6312 46.7707 70.363 50.0819 70.363C53.3931 70.363 56.1248 67.6312 56.1248 64.32V60.9261H64.8167C65.5617 60.9261 66.1412 60.3466 66.1412 59.6016V31.7875H67.5485C68.2935 31.7875 68.8729 31.2081 68.8729 30.463V17.2182C68.8729 16.4732 68.2935 15.8938 67.5485 15.8938ZM55.6281 2.64896H63.575V10.5958H55.6281V2.64896ZM2.64896 2.64896H52.9792V10.5958H2.64896V2.64896ZM50.1647 67.714C48.4263 67.714 46.9362 66.3895 46.7707 64.6512H53.5586C53.3103 66.3895 51.903 67.714 50.1647 67.714ZM53.5586 62.085H46.7707V49.1713L46.8535 49.2541C47.1018 49.5024 47.4329 49.668 47.8468 49.668C48.1779 49.668 48.5918 49.5024 48.8402 49.2541L50.2474 47.764L51.6547 49.2541C51.903 49.5024 52.2342 49.668 52.6481 49.668C53.062 49.668 53.3931 49.5024 53.6414 49.2541L53.7242 49.1713V62.085H53.5586ZM50.1647 39.3205L50.8269 40.7277H49.4196L50.1647 39.3205ZM52.1514 43.3767L53.2275 45.6118L52.4825 46.4396L51.0752 44.9495C50.8269 44.7012 50.4958 44.5356 50.0819 44.5356C49.7508 44.5356 49.3369 44.7012 49.0885 44.9495L47.6813 46.4396L46.9362 45.6118L48.0124 43.3767H52.1514ZM63.575 58.2771H56.2076V46.6051C56.2076 46.0257 56.2076 45.4462 55.8765 44.8667C54.552 42.2178 53.2275 39.5688 51.903 36.8371C51.7375 36.4232 51.4891 36.0921 51.3236 35.6782C51.0752 35.2643 50.6613 34.9332 50.1647 34.9332C49.668 34.9332 49.1713 35.1815 49.0057 35.6782C48.0952 37.4993 47.1846 39.2377 46.274 41.0589C45.8601 41.8039 45.529 42.6317 45.1151 43.3767C44.7012 44.2045 44.1217 44.9495 44.1217 45.8601C44.1217 46.1912 44.1217 46.5224 44.1217 46.7707V57.0354C44.1217 57.1182 44.1217 58.0288 44.1217 58.0288H2.73174V13.2448H63.6578V15.8938H36.3404C35.5954 15.8938 35.0159 16.4732 35.0159 17.2182V30.463C35.0159 31.2081 35.5954 31.7875 36.3404 31.7875H63.6578C63.575 31.7875 63.575 58.0288 63.575 58.2771ZM66.224 29.1386H37.5821V18.5427H66.224V29.1386Z" fill="white"/>
</svg>
