<svg xmlns="http://www.w3.org/2000/svg" width="34" height="31" viewBox="0 0 34 31">
  <path d="M33.192 27.087 30.806 18.7a.8.8 0 0 0-.27-.399l.003-.004-4.743-3.827-1.07 1.203 4.168 3.363-5.524 6.845-4.498-3.63-1.07 1.202 5.178 4.18.006-.008a.807.807 0 0 0 .48.185l8.919.291h.027a.816.816 0 0 0 .645-.317.795.795 0 0 0 .134-.699Zm-8.06-.822 4.544-5.628 1.658 5.83-6.201-.202ZM10.33 28.241c-1.566.949-3.681 1.036-6.294.285.65-.907 1-1.99.998-3.101.02-.693.194-1.374.512-1.992a3.488 3.488 0 0 1 1.377-1.459 3.546 3.546 0 0 1 1.962-.468 3.58 3.58 0 0 1-.238-1.6 5.144 5.144 0 0 0-2.664.756c-.8.491-1.447 1.191-1.87 2.023a6.219 6.219 0 0 0-.696 2.667c-.033.706-.229 2.378-1.35 2.659-.026.006-.05.018-.075.027-.024.009-.042.013-.062.022a.736.736 0 0 0-.081.046.725.725 0 0 0-.12.087c-.018.015-.036.03-.053.049a.79.79 0 0 0-.05.062.717.717 0 0 0-.046.061c-.016.026-.028.054-.041.08-.009.018-.02.034-.026.054v.009a.747.747 0 0 0-.027.096c-.004.019-.011.038-.014.057a.747.747 0 0 0-.006.077c0 .027-.005.053-.004.08 0 .018.005.036.007.053a.82.82 0 0 0 .016.103v.008c0 .006.005.01.007.014.021.077.054.15.097.218.005.006.008.014.012.02.045.064.098.12.159.168l.035.027a.812.812 0 0 0 .185.103c1.664.68 3.44 1.053 5.24 1.102a7.494 7.494 0 0 0 3.958-1.03 7.53 7.53 0 0 0 3.14-4.12 3.714 3.714 0 0 1-1.58-.374 5.913 5.913 0 0 1-2.408 3.131Z"/>
  <path d="M30.974 5.035a3.332 3.332 0 0 0-.379-1.267 3.369 3.369 0 0 0-.843-1.024l-1.27-1.042a3.446 3.446 0 0 0-2.515-.761c-.45.042-.886.172-1.284.382-.399.21-.751.494-1.038.839L10.493 18.763a2.289 2.289 0 0 0 .346 3.218l1.987 1.63a2.351 2.351 0 0 0 3.263-.254L30.2 7.509a3.352 3.352 0 0 0 .775-2.474ZM28.97 6.469 14.873 22.301a.726.726 0 0 1-1.013.078l-1.986-1.63a.713.713 0 0 1-.108-.998l13.14-16.585a1.821 1.821 0 0 1 2.542-.233l1.27 1.042a1.77 1.77 0 0 1 .253 2.494ZM10.034 17.18l.998-1.26-3.886-3.14 5.595-6.787 3.754 3.031.998-1.26-3.807-3.075-3.94-3.181-1.188-.96a2.554 2.554 0 0 0-1.88-.53c-.922.112-1.76.579-2.335 1.299L.829 5.579C-.308 6.96-.27 8.858.912 9.814l4.583 3.7 4.539 3.666ZM2.084 6.59l3.517-4.262c.304-.39.749-.647 1.24-.72a.945.945 0 0 1 .694.179L11.49 4.98l-5.599 6.786-3.955-3.192c-.484-.392-.417-1.3.147-1.985Z"/>
</svg>
