<svg width="74" height="54" viewBox="0 0 74 54" fill="none" xmlns="http://www.w3.org/2000/svg">
<path d="M72.1147 0H1.67709C1.2323 0 0.805722 0.176693 0.491207 0.491207C0.176692 0.805722 0 1.2323 0 1.67709V51.9897C0 52.4345 0.176692 52.861 0.491207 53.1755C0.805722 53.4901 1.2323 53.6667 1.67709 53.6667H72.1147C72.5595 53.6667 72.9861 53.4901 73.3006 53.1755C73.6151 52.861 73.7918 52.4345 73.7918 51.9897V1.67709C73.7918 1.2323 73.6151 0.805722 73.3006 0.491207C72.9861 0.176693 72.5595 0 72.1147 0ZM3.35417 3.35417H70.4376V10.0625H3.35417V3.35417ZM16.7709 50.3126V40.2501H23.4792V50.3126H16.7709ZM33.5417 50.3126V40.2501H40.2501V50.3126H33.5417ZM50.3126 50.3126V40.2501H57.0209V50.3126H50.3126ZM70.4376 50.3126H60.3751V38.573C60.3751 38.1282 60.1984 37.7016 59.8839 37.3871C59.5694 37.0726 59.1428 36.8959 58.698 36.8959H48.6355C48.1907 36.8959 47.7641 37.0726 47.4496 37.3871C47.1351 37.7016 46.9584 38.1282 46.9584 38.573V50.3126H43.6042V38.573C43.6042 38.1282 43.4275 37.7016 43.113 37.3871C42.7985 37.0726 42.3719 36.8959 41.9271 36.8959H31.8646C31.4198 36.8959 30.9933 37.0726 30.6788 37.3871C30.3642 37.7016 30.1875 38.1282 30.1875 38.573V50.3126H26.8334V38.573C26.8334 38.1282 26.6567 37.7016 26.3422 37.3871C26.0277 37.0726 25.6011 36.8959 25.1563 36.8959H15.0938C14.649 36.8959 14.2224 37.0726 13.9079 37.3871C13.5934 37.7016 13.4167 38.1282 13.4167 38.573V50.3126H3.35417V13.4167H70.4376V50.3126Z" fill="url(#paint0_linear_0_304)"/>
<defs>
<linearGradient id="paint0_linear_0_304" x1="2.26735" y1="53.6667" x2="73.7918" y2="53.6667" gradientUnits="userSpaceOnUse">
<stop stop-color="#0077FF"/>
<stop offset="1" stop-color="#00BBFF"/>
</linearGradient>
</defs>
</svg>
