<svg width="63" height="70" viewBox="0 0 63 70" fill="none" xmlns="http://www.w3.org/2000/svg">
<path d="M5.83333 70H57.1667C58.7132 69.9981 60.1958 69.383 61.2894 68.2894C62.383 67.1958 62.9981 65.7132 63 64.1667V5.83333C62.9981 4.28681 62.383 2.80415 61.2894 1.71059C60.1958 0.617029 58.7132 0.0018525 57.1667 0H5.83333C4.28681 0.0018525 2.80415 0.617029 1.71059 1.71059C0.617029 2.80415 0.0018525 4.28681 0 5.83333V64.1667C0.0018525 65.7132 0.617029 67.1958 1.71059 68.2894C2.80415 69.383 4.28681 69.9981 5.83333 70ZM57.1667 67.6667H5.83333C4.90508 67.6667 4.01484 67.2979 3.35846 66.6415C2.70208 65.9852 2.33333 65.0949 2.33333 64.1667V14H60.6667V64.1667C60.6667 65.0949 60.2979 65.9852 59.6415 66.6415C58.9852 67.2979 58.0949 67.6667 57.1667 67.6667ZM2.33333 5.83333C2.33333 4.90508 2.70208 4.01484 3.35846 3.35846C4.01484 2.70208 4.90508 2.33333 5.83333 2.33333H57.1667C58.0949 2.33333 58.9852 2.70208 59.6415 3.35846C60.2979 4.01484 60.6667 4.90508 60.6667 5.83333V11.6667H2.33333V5.83333Z" fill="white"/>
<path d="M8.16683 9.33329C9.45549 9.33329 10.5002 8.28862 10.5002 6.99996C10.5002 5.71129 9.45549 4.66663 8.16683 4.66663C6.87816 4.66663 5.8335 5.71129 5.8335 6.99996C5.8335 8.28862 6.87816 9.33329 8.16683 9.33329Z" fill="white"/>
<path d="M13.9998 9.33329C15.2885 9.33329 16.3332 8.28862 16.3332 6.99996C16.3332 5.71129 15.2885 4.66663 13.9998 4.66663C12.7112 4.66663 11.6665 5.71129 11.6665 6.99996C11.6665 8.28862 12.7112 9.33329 13.9998 9.33329Z" fill="white"/>
<path d="M19.8333 9.33329C21.122 9.33329 22.1667 8.28862 22.1667 6.99996C22.1667 5.71129 21.122 4.66663 19.8333 4.66663C18.5447 4.66663 17.5 5.71129 17.5 6.99996C17.5 8.28862 18.5447 9.33329 19.8333 9.33329Z" fill="white"/>
<path d="M54.8333 21H8.16667C7.85725 21 7.5605 21.1229 7.34171 21.3417C7.12292 21.5605 7 21.8572 7 22.1667V36.1667C7 36.4761 7.12292 36.7728 7.34171 36.9916C7.5605 37.2104 7.85725 37.3333 8.16667 37.3333H38.5C38.8094 37.3333 39.1062 37.2104 39.325 36.9916C39.5438 36.7728 39.6667 36.4761 39.6667 36.1667C39.6667 35.8572 39.5438 35.5605 39.325 35.3417C39.1062 35.1229 38.8094 35 38.5 35H9.33333V23.3333H53.6667V35C53.3572 35 53.0605 35.1229 52.8417 35.3417C52.6229 35.5605 52.5 35.8572 52.5 36.1667C52.5 36.4761 52.6229 36.7728 52.8417 36.9916C53.0605 37.2104 53.3572 37.3333 53.6667 37.3333H54.8333C55.1427 37.3333 55.4395 37.2104 55.6583 36.9916C55.8771 36.7728 56 36.4761 56 36.1667V22.1667C56 21.8572 55.8771 21.5605 55.6583 21.3417C55.4395 21.1229 55.1427 21 54.8333 21Z" fill="white"/>
<path d="M18.3248 26.0086C18.1061 25.7899 17.8094 25.667 17.5 25.667C17.1907 25.667 16.894 25.7899 16.6752 26.0086L15.1667 27.5171L13.6582 26.0086C13.4381 25.7961 13.1434 25.6785 12.8375 25.6811C12.5317 25.6838 12.239 25.8065 12.0227 26.0228C11.8064 26.2391 11.6837 26.5317 11.6811 26.8376C11.6784 27.1435 11.796 27.4382 12.0085 27.6582L13.517 29.1667L12.0085 30.6752C11.8971 30.7829 11.8082 30.9116 11.7471 31.0539C11.6859 31.1963 11.6537 31.3494 11.6524 31.5043C11.651 31.6592 11.6806 31.8128 11.7392 31.9562C11.7979 32.0996 11.8845 32.2298 11.9941 32.3394C12.1036 32.4489 12.2339 32.5355 12.3772 32.5942C12.5206 32.6529 12.6742 32.6824 12.8291 32.681C12.9841 32.6797 13.1371 32.6475 13.2795 32.5864C13.4218 32.5252 13.5506 32.4363 13.6582 32.3249L15.1667 30.8164L16.6752 32.3249C16.8952 32.5374 17.1899 32.655 17.4958 32.6524C17.8017 32.6497 18.0943 32.527 18.3106 32.3107C18.5269 32.0944 18.6496 31.8018 18.6523 31.4959C18.655 31.19 18.5374 30.8953 18.3248 30.6752L16.8163 29.1667L18.3248 27.6582C18.5436 27.4395 18.6664 27.1428 18.6664 26.8334C18.6664 26.5241 18.5436 26.2274 18.3248 26.0086Z" fill="white"/>
<path d="M27.6583 26.0086C27.4396 25.7899 27.1429 25.667 26.8335 25.667C26.5242 25.667 26.2275 25.7899 26.0087 26.0086L24.5002 27.5171L22.9917 26.0086C22.7716 25.7961 22.4769 25.6785 22.171 25.6811C21.8651 25.6838 21.5725 25.8065 21.3562 26.0228C21.1399 26.2391 21.0172 26.5317 21.0146 26.8376C21.0119 27.1435 21.1295 27.4382 21.342 27.6582L22.8505 29.1667L21.342 30.6752C21.2306 30.7829 21.1417 30.9116 21.0806 31.0539C21.0194 31.1963 20.9872 31.3494 20.9859 31.5043C20.9845 31.6592 21.0141 31.8128 21.0727 31.9562C21.1314 32.0996 21.218 32.2298 21.3275 32.3394C21.4371 32.4489 21.5674 32.5355 21.7107 32.5942C21.8541 32.6529 22.0077 32.6824 22.1626 32.681C22.3176 32.6797 22.4706 32.6475 22.613 32.5864C22.7553 32.5252 22.8841 32.4363 22.9917 32.3249L24.5002 30.8164L26.0087 32.3249C26.2287 32.5374 26.5234 32.655 26.8293 32.6524C27.1352 32.6497 27.4278 32.527 27.6441 32.3107C27.8604 32.0944 27.9831 31.8018 27.9858 31.4959C27.9885 31.19 27.8709 30.8953 27.6583 30.6752L26.1498 29.1667L27.6583 27.6582C27.8771 27.4395 27.9999 27.1428 27.9999 26.8334C27.9999 26.5241 27.8771 26.2274 27.6583 26.0086Z" fill="white"/>
<path d="M36.9918 26.0086C36.7731 25.7899 36.4764 25.667 36.167 25.667C35.8576 25.667 35.561 25.7899 35.3422 26.0086L33.8337 27.5171L32.3252 26.0086C32.1051 25.7961 31.8104 25.6785 31.5045 25.6811C31.1986 25.6838 30.906 25.8065 30.6897 26.0228C30.4734 26.2391 30.3507 26.5317 30.348 26.8376C30.3454 27.1435 30.463 27.4382 30.6755 27.6582L32.184 29.1667L30.6755 30.6752C30.5641 30.7829 30.4752 30.9116 30.4141 31.0539C30.3529 31.1963 30.3207 31.3494 30.3194 31.5043C30.318 31.6592 30.3476 31.8128 30.4062 31.9562C30.4649 32.0996 30.5515 32.2298 30.661 32.3394C30.7706 32.4489 30.9008 32.5355 31.0442 32.5942C31.1876 32.6529 31.3412 32.6824 31.4961 32.681C31.651 32.6797 31.8041 32.6475 31.9465 32.5864C32.0888 32.5252 32.2176 32.4363 32.3252 32.3249L33.8337 30.8164L35.3422 32.3249C35.5622 32.5374 35.8569 32.655 36.1628 32.6524C36.4687 32.6497 36.7613 32.527 36.9776 32.3107C37.1939 32.0944 37.3166 31.8018 37.3193 31.4959C37.3219 31.19 37.2044 30.8953 36.9918 30.6752L35.4833 29.1667L36.9918 27.6582C37.2106 27.4395 37.3334 27.1428 37.3334 26.8334C37.3334 26.5241 37.2106 26.2274 36.9918 26.0086Z" fill="white"/>
<path d="M51.9028 32.7938C51.8374 32.5897 51.7169 32.4076 51.5548 32.2674C51.3926 32.1273 51.1949 32.0345 50.9835 31.9993L41.0843 30.3497C40.9011 30.3191 40.7133 30.3327 40.5364 30.3894C40.3595 30.446 40.1986 30.5441 40.0673 30.6755C39.9359 30.8068 39.8379 30.9676 39.7812 31.1445C39.7245 31.3214 39.7109 31.5093 39.7415 31.6925L41.3912 41.5917C41.4266 41.8029 41.5195 42.0003 41.6597 42.1623C41.8 42.3242 41.982 42.4445 42.186 42.5098C42.3901 42.5751 42.6081 42.583 42.8163 42.5326C43.0245 42.4821 43.2148 42.3754 43.3663 42.224L45.0172 40.5743L48.3165 43.8737C48.5353 44.0924 48.832 44.2152 49.1413 44.2152C49.4507 44.2152 49.7474 44.0924 49.9662 43.8737L53.2667 40.5743C53.4854 40.3555 53.6083 40.0589 53.6083 39.7495C53.6083 39.4401 53.4854 39.1434 53.2667 38.9247L49.9662 35.6253L51.617 33.9745C51.7685 33.8229 51.8753 33.6326 51.9257 33.4243C51.9761 33.216 51.9682 32.9979 51.9028 32.7938ZM50.7922 39.7495L49.1413 41.3992L45.842 38.0998C45.6232 37.8811 45.3265 37.7582 45.0172 37.7582C44.7078 37.7582 44.4111 37.8811 44.1923 38.0998L43.3197 38.9713L42.3117 32.9187L48.3643 33.9278L47.4917 34.8005C47.273 35.0193 47.1501 35.316 47.1501 35.6253C47.1501 35.9347 47.273 36.2314 47.4917 36.4502L50.7922 39.7495Z" fill="white"/>
<path d="M56.0002 5.83337H49.0002C48.6907 5.83337 48.394 5.95629 48.1752 6.17508C47.9564 6.39388 47.8335 6.69062 47.8335 7.00004C47.8335 7.30946 47.9564 7.60621 48.1752 7.825C48.394 8.04379 48.6907 8.16671 49.0002 8.16671H56.0002C56.3096 8.16671 56.6063 8.04379 56.8251 7.825C57.0439 7.60621 57.1668 7.30946 57.1668 7.00004C57.1668 6.69062 57.0439 6.39388 56.8251 6.17508C56.6063 5.95629 56.3096 5.83337 56.0002 5.83337Z" fill="white"/>
<path d="M45.5 5.83337H43.1667C42.8572 5.83337 42.5605 5.95629 42.3417 6.17508C42.1229 6.39388 42 6.69062 42 7.00004C42 7.30946 42.1229 7.60621 42.3417 7.825C42.5605 8.04379 42.8572 8.16671 43.1667 8.16671H45.5C45.8094 8.16671 46.1062 8.04379 46.325 7.825C46.5438 7.60621 46.6667 7.30946 46.6667 7.00004C46.6667 6.69062 46.5438 6.39388 46.325 6.17508C46.1062 5.95629 45.8094 5.83337 45.5 5.83337Z" fill="white"/>
<path d="M17.5 49C16.8078 49 16.1311 49.2053 15.5555 49.5899C14.9799 49.9744 14.5313 50.5211 14.2664 51.1606C14.0015 51.8002 13.9322 52.5039 14.0673 53.1828C14.2023 53.8617 14.5356 54.4854 15.0251 54.9749C15.5146 55.4644 16.1383 55.7977 16.8172 55.9327C17.4961 56.0678 18.1999 55.9985 18.8394 55.7336C19.4789 55.4687 20.0256 55.0201 20.4101 54.4445C20.7947 53.8689 21 53.1922 21 52.5C21 51.5717 20.6313 50.6815 19.9749 50.0251C19.3185 49.3688 18.4283 49 17.5 49ZM17.5 53.6667C17.2693 53.6667 17.0437 53.5982 16.8518 53.47C16.66 53.3419 16.5104 53.1596 16.4221 52.9465C16.3338 52.7333 16.3107 52.4987 16.3558 52.2724C16.4008 52.0461 16.5119 51.8382 16.675 51.675C16.8382 51.5119 17.0461 51.4008 17.2724 51.3558C17.4987 51.3107 17.7333 51.3338 17.9465 51.4221C18.1596 51.5104 18.3419 51.66 18.4701 51.8518C18.5982 52.0437 18.6667 52.2693 18.6667 52.5C18.6667 52.8094 18.5438 53.1062 18.325 53.325C18.1062 53.5438 17.8094 53.6667 17.5 53.6667Z" fill="white"/>
<path d="M52.4999 49H27.3127C26.5005 46.9921 25.0152 45.3292 23.1114 44.2963C21.2075 43.2634 19.0037 42.9248 16.8777 43.3385C14.7516 43.7522 12.8356 44.8925 11.458 46.564C10.0805 48.2355 9.32715 50.334 9.32715 52.5C9.32715 54.6659 10.0805 56.7645 11.458 58.4359C12.8356 60.1074 14.7516 61.2477 16.8777 61.6614C19.0037 62.0752 21.2075 61.7366 23.1114 60.7037C25.0152 59.6708 26.5005 58.0079 27.3127 56H39.6665V59.5C39.6665 59.8094 39.7895 60.1061 40.0083 60.3249C40.2271 60.5437 40.5238 60.6666 40.8332 60.6666H44.3332V61.8333C44.3332 62.1427 44.4561 62.4395 44.6749 62.6583C44.8937 62.8771 45.1905 63 45.4999 63H50.1665C50.476 63 50.7727 62.8771 50.9915 62.6583C51.2103 62.4395 51.3332 62.1427 51.3332 61.8333V56H52.4999C52.8093 56 53.106 55.8771 53.3248 55.6583C53.5436 55.4395 53.6665 55.1427 53.6665 54.8333V50.1666C53.6665 49.8572 53.5436 49.5605 53.3248 49.3417C53.106 49.1229 52.8093 49 52.4999 49ZM18.6665 59.5C17.2821 59.5 15.9287 59.0894 14.7776 58.3203C13.6264 57.5511 12.7292 56.4578 12.1994 55.1788C11.6696 53.8997 11.531 52.4922 11.8011 51.1343C12.0711 49.7765 12.7378 48.5292 13.7168 47.5502C14.6958 46.5713 15.943 45.9046 17.3009 45.6345C18.6588 45.3644 20.0662 45.503 21.3453 46.0328C22.6244 46.5626 23.7177 47.4598 24.4868 48.611C25.256 49.7621 25.6665 51.1155 25.6665 52.5C25.6647 54.3559 24.9266 56.1353 23.6143 57.4477C22.3019 58.76 20.5225 59.4981 18.6665 59.5ZM48.9999 60.6666H46.6665V59.5C46.6665 59.1906 46.5436 58.8938 46.3248 58.675C46.106 58.4562 45.8093 58.3333 45.4999 58.3333H41.9999V56H48.9999V60.6666ZM51.3332 53.6666H27.9194C28.0267 52.8926 28.0267 52.1074 27.9194 51.3333H51.3332V53.6666Z" fill="white"/>
</svg>
