<svg width="73" height="64" viewBox="0 0 73 64" fill="none" xmlns="http://www.w3.org/2000/svg">
<path d="M69.0078 63.103H3.99219C1.79173 63.103 0 61.3113 0 59.1108V4.20874C0 2.00828 1.79173 0.216553 3.99219 0.216553H69.0078C71.2083 0.216553 73 2.00828 73 4.20874V59.1108C73 61.3113 71.2083 63.103 69.0078 63.103ZM3.99219 2.4978C3.04642 2.4978 2.28125 3.26297 2.28125 4.20874V59.1108C2.28125 60.0566 3.04642 60.8218 3.99219 60.8218H69.0078C69.9536 60.8218 70.7188 60.0566 70.7188 59.1108V4.20874C70.7188 3.26297 69.9536 2.4978 69.0078 2.4978H3.99219Z" fill="white"/>
<path d="M71.8594 12.5497H1.14062C0.508529 12.5497 0 12.0411 0 11.409C0 10.777 0.508529 10.2684 1.14062 10.2684H71.8594C72.4915 10.2684 73 10.777 73 11.409C73 12.0411 72.4915 12.5497 71.8594 12.5497Z" fill="white"/>
<path d="M65.4385 7.5263H37.0654C36.4333 7.5263 35.9248 7.01777 35.9248 6.38567C35.9248 5.75358 36.4333 5.24505 37.0654 5.24505H65.4385C66.0706 5.24505 66.5791 5.75358 66.5791 6.38567C66.5791 7.01777 66.0658 7.5263 65.4385 7.5263Z" fill="white"/>
<path d="M8.52599 7.88245C9.35543 7.88245 10.0278 7.21006 10.0278 6.38062C10.0278 5.55119 9.35543 4.8788 8.52599 4.8788C7.69656 4.8788 7.02417 5.55119 7.02417 6.38062C7.02417 7.21006 7.69656 7.88245 8.52599 7.88245Z" fill="white"/>
<path d="M14.8143 7.88245C15.6438 7.88245 16.3161 7.21006 16.3161 6.38062C16.3161 5.55119 15.6438 4.8788 14.8143 4.8788C13.9849 4.8788 13.3125 5.55119 13.3125 6.38062C13.3125 7.21006 13.9849 7.88245 14.8143 7.88245Z" fill="white"/>
<path d="M22.5851 6.62122C22.718 5.80249 22.162 5.03106 21.3433 4.89818C20.5245 4.76531 19.7531 5.32131 19.6202 6.14004C19.4874 6.95877 20.0434 7.73021 20.8621 7.86308C21.6808 7.99596 22.4523 7.43996 22.5851 6.62122Z" fill="white"/>
</svg>
