<svg xmlns="http://www.w3.org/2000/svg" viewBox="0 0 57 62" width="57" height="62">
  <path d="M28.5 45.714a1.018 1.018 0 1 0 0-2.035 1.018 1.018 0 0 0 0 2.035Z"/>
  <path d="M53.946 7.036h-5.089v2.036h5.09c.61 0 1.017.407 1.017 1.018v29.517H52.93v-28.5h-4.072v2.036h2.036v26.464H6.107V13.143h2.036v-2.036H4.07v28.5H2.036V10.09c0-.611.407-1.018 1.018-1.018h5.089V7.036h-5.09C1.324 7.036 0 8.359 0 10.089v36.643c0 1.73 1.323 3.054 3.054 3.054h19.339v4.071h-5.09c-2.85 0-5.089 2.24-5.089 5.09V62h32.572v-3.053c0-2.85-2.24-5.09-5.09-5.09h-5.089v-4.071h19.34c1.73 0 3.053-1.323 3.053-3.054V10.09c0-1.73-1.323-3.054-3.054-3.054Zm-14.25 48.857c1.73 0 3.054 1.323 3.054 3.054v1.017h-28.5v-1.017c0-1.73 1.323-3.054 3.054-3.054h22.392Zm-7.125-2.036H24.43v-4.071h8.142v4.071Zm21.375-6.107H3.054c-.611 0-1.018-.407-1.018-1.018v-5.089h52.928v5.09c0 .61-.407 1.017-1.018 1.017Z"/>
  <path d="M43.768.929H13.232c-1.73 0-3.053 1.323-3.053 3.053v30.536c0 1.73 1.323 3.054 3.053 3.054h30.536c1.73 0 3.053-1.324 3.053-3.054V3.982c0-1.73-1.323-3.053-3.053-3.053Zm1.018 3.053v3.054h-4.072V2.964h3.054c.61 0 1.018.408 1.018 1.018ZM13.232 2.964H38.68v4.072H12.214V3.982c0-.61.407-1.018 1.018-1.018Zm30.536 32.572H13.232c-.61 0-1.018-.407-1.018-1.018V9.072h32.572v25.446c0 .61-.407 1.018-1.018 1.018Z"/>
  <path d="M21.375 16.197h2.036V14.16h-2.036c-1.73 0-3.054 1.323-3.054 3.054v3.053c0 .61-.407 1.018-1.017 1.018h-1.018v2.036h1.018c.61 0 1.017.407 1.017 1.018v3.053c0 1.73 1.324 3.054 3.054 3.054h2.036V28.41h-2.036c-.61 0-1.018-.407-1.018-1.018v-3.257a2.01 2.01 0 0 0-.61-1.425l-.408-.407.407-.407a2.01 2.01 0 0 0 .611-1.425v-3.258c0-.61.407-1.017 1.018-1.017Zm14.25 0h-2.036V14.16h2.036c1.73 0 3.054 1.323 3.054 3.054v3.053c0 .61.407 1.018 1.017 1.018h1.018v2.036h-1.018c-.61 0-1.017.407-1.017 1.018v3.053c0 1.73-1.324 3.054-3.054 3.054h-2.036V28.41h2.036c.61 0 1.018-.407 1.018-1.018v-3.257c0-.509.203-1.018.61-1.425l.408-.407-.407-.407a2.01 2.01 0 0 1-.611-1.425v-3.258c0-.61-.407-1.017-1.018-1.017Z"/>
  <path d="M23.41 23.322a1.018 1.018 0 1 0 0-2.036 1.018 1.018 0 0 0 0 2.036Zm5.09 0a1.018 1.018 0 1 0 0-2.036 1.018 1.018 0 0 0 0 2.036Zm5.09 0a1.018 1.018 0 1 0 0-2.036 1.018 1.018 0 0 0 0 2.036Z"/>
</svg>
