<svg xmlns="http://www.w3.org/2000/svg" viewBox="0 0 60 60" width="60" height="60">
  <path d="M5 35v9a5.006 5.006 0 0 0 5 5h14.572L21.3 58H18v2h26v-2h-3.3l-.761-2.091-1.878.684.51 1.407H23.429l3.51-9.658A1 1 0 0 0 26 47H10a3 3 0 0 1-3-3v-2h17v-2H7v-5H5Zm50-22v31a3 3 0 0 1-.75 1.985l1.5 1.323A5 5 0 0 0 57 44V13a5.006 5.006 0 0 0-5-5H26v2h26a3 3 0 0 1 3 3Z"/>
  <path d="M43 12h-2v2h2v-2Zm4 0h-2v2h2v-2Zm4 0h-2v2h2v-2Zm0 4H26v2h25v-2ZM29 28h-2v2h2v-2Zm-4-6h20v4h2v-5a1 1 0 0 0-1-1H25v2Zm2 2h-2v2h2v-2Zm4 0h-2v2h2v-2Zm-16 8h-2v2h2v-2Zm11 0h-5v2h5v-2Zm-2 4H13v2h11v-2Z"/>
  <path d="M3.527 21.646a.994.994 0 0 0 .648.767l-3.07 6.14A1 1 0 0 0 2 30h3.465l1.7 2.555A1 1 0 0 0 8 33h.062a1 1 0 0 0 .833-.551l3.37-6.75.15.109a1 1 0 0 0 1.17 0l.149-.108 3.37 6.744a1 1 0 0 0 .833.55L18 33a1 1 0 0 0 .832-.445L20.535 30H24a1.002 1.002 0 0 0 .895-1.447l-3.07-6.14a.994.994 0 0 0 .648-.767l.715-4.425 2.623-3.636a1 1 0 0 0 0-1.17l-2.623-3.636-.715-4.425a1 1 0 0 0-.827-.827l-4.425-.715L13.585.189a1 1 0 0 0-1.17 0L8.779 2.812l-4.425.715a1 1 0 0 0-.827.827l-.715 4.425-2.623 3.636a1 1 0 0 0 0 1.17l2.623 3.636.715 4.425Zm4.349 8.366-1.044-1.567A1 1 0 0 0 6 28H3.618l2.611-5.224 2.55.412 1.844 1.33-2.747 5.494ZM22.382 28H20a.998.998 0 0 0-.832.445l-1.044 1.567-2.747-5.493 1.844-1.331 2.55-.412L22.38 28ZM4.57 9.758a.992.992 0 0 0 .177-.425l.639-3.946 3.946-.639a.992.992 0 0 0 .425-.177L13 2.233l3.242 2.338a.992.992 0 0 0 .425.177l3.946.639.639 3.946c.025.154.085.3.177.425L23.767 13l-2.338 3.242a.992.992 0 0 0-.177.425l-.64 3.946-.433.07-3.51.569a.992.992 0 0 0-.424.177L13 23.767l-3.242-2.338a.993.993 0 0 0-.425-.177l-3.51-.568-.433-.071-.64-3.946a.992.992 0 0 0-.176-.425L2.233 13l2.338-3.242Z"/>
  <path d="M13 20a7 7 0 1 0-7-7 7.01 7.01 0 0 0 7 7Zm0-12a5 5 0 1 1-5 5 5.006 5.006 0 0 1 5-5Z"/>
  <path d="M14 10h-2v6h2v-6Zm42.879 50a3.122 3.122 0 0 0 2.207-5.328l-6.864-6.864a14.05 14.05 0 1 0-4.188 4.64l6.638 6.638c.586.583 1.38.912 2.207.914Zm-16.88-7a12 12 0 1 1 12-12 12.013 12.013 0 0 1-12 12Zm11.094-3.493 6.579 6.58a1.122 1.122 0 0 1-1.586 1.585l-6.5-6.5a14.173 14.173 0 0 0 1.507-1.665Z"/>
  <path d="M40 31a10 10 0 1 0 10 10 10.011 10.011 0 0 0-10-10Zm0 18a8 8 0 1 1 8-8 8.009 8.009 0 0 1-8 8Z"/>
  <path d="M34 41h2a4 4 0 0 1 4-4v-2a6.006 6.006 0 0 0-6 6Z"/>
</svg>
