<svg xmlns="http://www.w3.org/2000/svg" viewBox="0 0 72 59" width="72" height="57">
  <path d="m44.92 27.214-3.607-3.607 2.732-2.732 3.498-.218c.328 0 .656-.22.874-.547l4.918-8.743c.219-.438.219-.984-.218-1.312l-3.17-3.17a1.162 1.162 0 0 0-1.311-.218l-8.744 4.918c-.328.219-.546.546-.546.874l-.219 3.498-2.732 2.732-3.607-3.607c.984-5.792-4.481-10.601-10.164-9.07-.765.218-1.093 1.201-.437 1.857l3.606 3.607-.983 2.186-2.186.983-3.607-3.606c-.546-.547-1.64-.328-1.858.437-1.64 5.683 3.17 11.038 9.072 10.164l3.606 3.607-5.027 5.027a1.313 1.313 0 0 0-1.53 0l-4.372 4.372c-1.749 1.749-1.749 4.59 0 6.448 1.748 1.75 4.59 1.75 6.448 0l4.372-4.371c.437-.438.437-.984 0-1.53l5.027-5.028 3.607 3.607c-.437 2.513.437 5.136 2.295 6.995 2.186 2.185 5.137 2.841 7.87 2.076.764-.219 1.092-1.202.437-1.858l-3.607-3.607.983-2.185 2.186-.984 3.607 3.607c.546.546 1.64.327 1.858-.438.765-2.841 0-5.792-2.077-7.869-1.858-1.858-4.48-2.732-6.994-2.295Zm-4.044-9.946c.218-.218.328-.437.328-.655l.218-3.28 7.542-4.262 2.076 2.077-4.262 7.323-3.28.218c-.218 0-.546.11-.655.328l-2.95 2.951-1.859-1.858 2.842-2.842Zm-17.05 22.296c-.874.875-2.404.875-3.279 0-.874-.874-.874-2.404 0-3.279l3.607-3.606 3.279 3.279-3.607 3.606Zm4.372-5.902-1.858-1.858 4.918-4.918 1.858 1.858-4.918 4.918Zm21.312-1.53c-.328-.328-.765-.437-1.202-.218-2.951 1.42-3.607 1.42-3.825 2.076l-1.421 3.28c-.219.436-.11.873.218 1.201l2.514 2.514c-1.42-.11-2.623-.656-3.607-1.64-1.42-1.42-2.076-3.497-1.53-5.573.11-.328 0-.765-.328-.984l-6.448-6.448c-.11-.11-1.858-1.749-1.749-1.64l-4.809-4.809c-.218-.218-.655-.327-.983-.327-3.388.874-6.886-1.53-7.214-5.247l2.514 2.514c.328.328.765.437 1.202.219l3.28-1.53c.218-.11.436-.328.546-.547l1.42-3.279c.219-.437.11-.874-.218-1.202l-2.514-2.514c3.497.328 6.12 3.716 5.246 7.214-.11.328 0 .765.328.983C44.92 30.165 44.045 29.62 44.92 29.4a6.196 6.196 0 0 1 5.574 1.53c.983.984 1.53 2.295 1.748 3.607l-2.732-2.405Z"/>
  <path d="M66.778 0H4.262C1.967 0 0 1.858 0 4.262v40.44c0 2.294 1.858 4.262 4.262 4.262h18.471v7.65H17.05c-.656 0-1.093.437-1.093 1.093 0 .656.437 1.093 1.093 1.093h36.94c.656 0 1.093-.437 1.093-1.093 0-.656-.437-1.093-1.093-1.093h-5.683v-7.65h18.47c2.296 0 4.263-1.858 4.263-4.263V4.262C71.04 1.967 69.183 0 66.778 0ZM46.231 56.614H24.81v-7.65h21.312v7.65h.11Zm22.624-11.913a2.075 2.075 0 0 1-2.077 2.077H4.262A2.075 2.075 0 0 1 2.186 44.7V4.262c0-1.092.874-2.076 2.076-2.076h62.516c1.093 0 2.077.874 2.077 2.076v40.44Z"/>
</svg>
