<svg xmlns="http://www.w3.org/2000/svg" width="31" height="36" viewBox="0 0 31 36">
  <path d="M4.83 20.092v-3.628a.493.493 0 0 1 .496-.494H7.78a.497.497 0 0 1 .496.494.493.493 0 0 1-.496.495H5.822v2.639h2.649v-.519a.493.493 0 0 1 .496-.494.497.497 0 0 1 .496.494v1.013a.493.493 0 0 1-.496.494h-3.64a.497.497 0 0 1-.497-.494Zm4.31-3.637-1.567 1.562-.516-.514a.497.497 0 0 0-.846.35c0 .13.052.256.145.348l.865.863a.498.498 0 0 0 .702 0l1.918-1.908a.493.493 0 0 0-.35-.843.497.497 0 0 0-.351.144v-.002Zm2.397-6.092h8.054a.497.497 0 0 0 .496-.494.493.493 0 0 0-.496-.494h-8.054a.497.497 0 0 0-.496.494.493.493 0 0 0 .496.494Zm0 2.988h8.054a.497.497 0 0 0 .496-.495.493.493 0 0 0-.496-.494h-8.054a.497.497 0 0 0-.496.494.493.493 0 0 0 .496.495Zm0 3.926h8.054a.497.497 0 0 0 .496-.494.493.493 0 0 0-.496-.494h-8.054a.497.497 0 0 0-.496.494.493.493 0 0 0 .496.494Zm5.246 2h-5.246a.497.497 0 0 0-.496.494.493.493 0 0 0 .496.494h5.246a.497.497 0 0 0 .496-.494.493.493 0 0 0-.496-.495Zm-1.24 3.927h-4.006a.497.497 0 0 0-.496.494.493.493 0 0 0 .496.494h4.007a.497.497 0 0 0 .496-.494.493.493 0 0 0-.496-.494Zm0 2.988h-4.006a.497.497 0 0 0-.496.494.493.493 0 0 0 .496.494h4.007a.497.497 0 0 0 .496-.494.493.493 0 0 0-.496-.494ZM5.327 13.672h3.64a.497.497 0 0 0 .497-.494v-1.013a.493.493 0 0 0-.496-.494.497.497 0 0 0-.496.494v.519H5.822v-2.64h1.957a.497.497 0 0 0 .496-.494.493.493 0 0 0-.496-.494H5.326a.497.497 0 0 0-.496.494v3.628a.493.493 0 0 0 .496.494Zm3.814-4.13-1.567 1.562-.516-.514a.497.497 0 0 0-.84.351.493.493 0 0 0 .139.348l.865.862a.497.497 0 0 0 .702 0L9.84 10.24a.494.494 0 1 0-.7-.699v.001ZM8.967 25.5a.497.497 0 0 0-.496.495v.518H5.822v-2.64h1.957a.497.497 0 0 0 .496-.493.493.493 0 0 0-.496-.495H5.326a.497.497 0 0 0-.496.495v3.627a.493.493 0 0 0 .496.494h3.64a.498.498 0 0 0 .46-.305.492.492 0 0 0 .037-.189v-1.012a.493.493 0 0 0-.496-.495Zm.173-2.128-1.567 1.561-.516-.514a.497.497 0 0 0-.84.352.493.493 0 0 0 .139.347l.865.862a.497.497 0 0 0 .702 0l1.917-1.91a.495.495 0 1 0-.7-.7v.002Zm14.438-2.131c.691 0 1.367.204 1.942.587a3.473 3.473 0 0 1 .53 5.36 3.5 3.5 0 0 1-3.81.756 3.494 3.494 0 0 1-1.57-1.283 3.475 3.475 0 0 1 .436-4.398 3.507 3.507 0 0 1 2.472-1.022Zm0 .988a2.51 2.51 0 0 0-2.315 1.541 2.488 2.488 0 0 0 .543 2.72 2.508 2.508 0 0 0 4.277-1.765c-.001-.662-.265-1.296-.735-1.764a2.512 2.512 0 0 0-1.77-.732Zm7.32 11.427a.497.497 0 0 1-.522.176l-1.891-.505-.507 1.885a.494.494 0 0 1-.727.3.495.495 0 0 1-.181-.18l-1.854-3.2v.374a.493.493 0 0 1-.496.494h-3.284l-1.348 2.333a.495.495 0 0 1-.496.24.496.496 0 0 1-.415-.361l-.506-1.885-1.892.505a.498.498 0 0 1-.623-.445.493.493 0 0 1 .066-.279l.062-.108H.496A.497.497 0 0 1 0 32.505V4.051a.492.492 0 0 1 .496-.493h6.903v-.56a.493.493 0 0 1 .496-.494h2.396V.494A.493.493 0 0 1 10.787 0h3.642a.497.497 0 0 1 .496.494v2.01h2.395a.497.497 0 0 1 .496.494v.56h6.903a.497.497 0 0 1 .496.494V18.89l.164.097a.074.074 0 0 0 .038.012l1.542.159a1.074 1.074 0 0 1 .885.647l.576 1.333a.073.073 0 0 0 .023.032l1.154 1.031a1.066 1.066 0 0 1 .333 1.042l-.32 1.415a.07.07 0 0 0 0 .04l.325 1.51a1.062 1.062 0 0 1-.344 1.038l-1.094.959a.07.07 0 0 0-.024.032l-.158.352 2.618 4.518a.493.493 0 0 1-.035.548Zm-5.582-13.672a1.064 1.064 0 0 1-.442-.146l-1.252-.74a.08.08 0 0 0-.094 0l-1.34.774a1.067 1.067 0 0 1-.444.14l-1.45.135a.08.08 0 0 0-.076.054l-.629 1.412c-.063.144-.157.271-.275.374l-1.094.957a.082.082 0 0 0-.03.09l.325 1.51c.033.152.032.31-.002.463l-.32 1.416a.08.08 0 0 0 .028.089l1.154 1.031c.117.104.21.233.271.377l.575 1.333a.08.08 0 0 0 .076.056l1.541.158c.157.015.308.065.443.146l1.252.74a.08.08 0 0 0 .093 0l1.342-.774c.135-.08.286-.127.442-.141l1.451-.134a.082.082 0 0 0 .076-.055l.628-1.412a1.06 1.06 0 0 1 .276-.374l1.094-.957a.08.08 0 0 0 .029-.09l-.323-1.511a1.051 1.051 0 0 1 .002-.464l.32-1.415a.08.08 0 0 0-.029-.09l-1.153-1.03a1.059 1.059 0 0 1-.272-.377l-.576-1.333a.079.079 0 0 0-.076-.055l-1.541-.157Zm-6.467 8.59-.114-.263a.069.069 0 0 0-.023-.032l-1.154-1.032a1.067 1.067 0 0 1-.333-1.041l.32-1.416a.076.076 0 0 0 0-.04l-.325-1.51a1.064 1.064 0 0 1 .345-1.038l1.094-.958a.07.07 0 0 0 .023-.032l.627-1.412a1.069 1.069 0 0 1 .89-.637l1.45-.135a.07.07 0 0 0 .039-.012l.25-.145V6.822h-4.122v.56a.493.493 0 0 1-.496.493H7.896A.497.497 0 0 1 7.4 7.38v-.559H3.276v22.914h14.9l.673-1.162ZM17.815 4.546v1.288h4.62a.497.497 0 0 1 .496.494v11.97l.1-.057a1.074 1.074 0 0 1 1.097.005l.096.058V4.546h-6.409Zm-9.423 2.34h8.432V3.492h-2.395a.497.497 0 0 1-.496-.494V.988h-2.65v2.01a.493.493 0 0 1-.496.494H8.392v3.394Zm8.464 25.125.747-1.288H2.78a.497.497 0 0 1-.496-.494V6.327a.493.493 0 0 1 .496-.494H7.4V4.546H.992v27.465h15.864Zm4.909-1.556a.07.07 0 0 0-.027-.006l-1.542-.159a1.073 1.073 0 0 1-.856-.587l-1.66 2.866 1.213-.324a.497.497 0 0 1 .607.35l.325 1.209 1.94-3.349Zm2.46 1.556v-.861l-.1.057a1.074 1.074 0 0 1-1.096-.006l-.41-.242-.61 1.052h2.216Zm5.252.557-1.659-2.863a1.07 1.07 0 0 1-.863.582l-1.45.134a.072.072 0 0 0-.038.012l-.067.04 1.93 3.33.326-1.209a.495.495 0 0 1 .607-.35l1.214.324Z"/>
</svg>
