<svg xmlns="http://www.w3.org/2000/svg" width="39" height="30" viewBox="0 0 39 30">
  <path d="M38.991 18.498a1.586 1.586 0 0 0-.593-1.086l-1.913-1.537a1.654 1.654 0 0 0-2.302.23l-.498.603-3.342-2.703a2.375 2.375 0 0 0-.303-2.535 2.296 2.296 0 0 0-.72-.567 2.36 2.36 0 0 0 .206-2.183c-.15-.32-.372-.6-.649-.822a2.347 2.347 0 0 0-.95-.455c.226-.296.402-.624.524-.974a2.12 2.12 0 0 0-.479-2.128 2.345 2.345 0 0 0-1.481-.823 2.1 2.1 0 0 0-.33-2.09 2.406 2.406 0 0 0-3.24-.32L20.049.174a2.593 2.593 0 0 0-2.1.106 3.096 3.096 0 0 0-1.326 1.609l-.925-.77a2.29 2.29 0 0 0-2.72-.16c-.41.267-.72.659-.883 1.116a2.202 2.202 0 0 0-.025 1.415 2.248 2.248 0 0 0-1.89 1.9c-.06.417.002.842.177 1.227a2.233 2.233 0 0 0-1.156 3.587 2.233 2.233 0 0 0-1.207 3.147L4.738 16.02a1.652 1.652 0 0 0-2.223-.145L.6 17.415a1.598 1.598 0 0 0-.234 2.268l8.05 9.726a1.62 1.62 0 0 0 1.104.583 1.637 1.637 0 0 0 1.2-.353l1.913-1.537a1.598 1.598 0 0 0 .234-2.267l-1.014-1.224 5.486-4.33c.282.03.559.062.829.095a17.19 17.19 0 0 0 2.605.178l5.83 4.713-.47.567a1.598 1.598 0 0 0 .234 2.268l1.914 1.538a1.636 1.636 0 0 0 1.199.352 1.64 1.64 0 0 0 1.102-.583l8.05-9.728a1.594 1.594 0 0 0 .358-1.181ZM18.511 1.3a1.43 1.43 0 0 1 1.16-.022l2.173.71-2.572 2.11-1.694-1.41a2.32 2.32 0 0 1 .934-1.388Zm-5.108.835a1.095 1.095 0 0 1 1.527-.128l3.792 3.156a1.063 1.063 0 0 1 .13 1.505l-.006.006a1.099 1.099 0 0 1-1.521.12L13.53 3.637a1.059 1.059 0 0 1-.128-1.503Zm-1.808 2.869a1.09 1.09 0 0 1 1.52-.128l3.127 2.615a1.067 1.067 0 0 1-.604 1.885 1.09 1.09 0 0 1-.787-.245l-.152-.128L12.4 7.069a2.26 2.26 0 0 0-.155-.12l-.52-.435a1.067 1.067 0 0 1-.13-1.511ZM10.12 8.079a1.06 1.06 0 0 1 .822-.375c.208 0 .412.06.586.174l2.426 2.029.173.146a1.075 1.075 0 0 1 .13 1.519 1.08 1.08 0 0 1-1.489.143l-1.323-1.119a3.08 3.08 0 0 0-.13-.1l-1.066-.897a1.075 1.075 0 0 1-.129-1.52Zm-.95 3.524a1.072 1.072 0 0 1 1.414-.192l1.393 1.171.047.038.648.548a1.083 1.083 0 0 1 .13 1.525 1.059 1.059 0 0 1-.727.373 1.074 1.074 0 0 1-.78-.249L9.3 13.13a1.082 1.082 0 0 1-.129-1.525Zm2.715 15.595L9.97 28.736a.462.462 0 0 1-.64-.064l-8.048-9.728a.446.446 0 0 1 .065-.63l1.914-1.537a.454.454 0 0 1 .333-.097.457.457 0 0 1 .306.162l8.05 9.727a.443.443 0 0 1-.066.63Zm6.425-7.978a48.906 48.906 0 0 0-1.091-.123.599.599 0 0 0-.429.125l-5.683 4.485L5.49 16.92l3.288-2.697 1.749 1.479a2.247 2.247 0 0 0 1.645.527 2.252 2.252 0 0 0 1.536-.786 2.234 2.234 0 0 0 .312-2.404 2.235 2.235 0 0 0 1.645-2.498c.023 0 .047 0 .07-.003.297-.024.586-.105.85-.24a2.235 2.235 0 0 0 1.218-2.099 2.2 2.2 0 0 0 .407.002 2.275 2.275 0 0 0 1.54-.782l.047-.053.002-.004a2.214 2.214 0 0 0 .246-2.384l3.603-2.955a1.136 1.136 0 0 1 .836-.226c.287.02.555.148.748.36.453.559.098 1.361-.488 1.865a.58.58 0 0 0 .338 1.021.597.597 0 0 0 .429-.135 1.097 1.097 0 0 1 .812-.23 1.103 1.103 0 0 1 .736.409c.59.699.299 1.211-.456 2.136l-.052.062a.713.713 0 0 0-.15.735c.079.149.198.272.345.357a.921.921 0 0 0 .486.122c.252-.003.5.064.716.191.217.128.393.312.51.533.084.28.071.58-.038.853-.11.273-.308.5-.564.649a.574.574 0 0 0-.058.99c.111.076.245.113.38.104a1.15 1.15 0 0 1 .95.396c.197.243.29.55.26.86a1.128 1.128 0 0 1-.394.788l-5.53 4.538c-1.524 1.252-3.127 1.06-5.155.82Zm4.026 1.091a5.342 5.342 0 0 0 1.886-1.015l5.36-4.398 3.356 2.712-5.589 6.756-5.013-4.055Zm15.379-1.367-8.047 9.728a.46.46 0 0 1-.64.064l-1.913-1.538a.45.45 0 0 1-.065-.629l8.049-9.727a.45.45 0 0 1 .354-.164c.104 0 .204.035.285.1l1.914 1.537a.449.449 0 0 1 .065.63h-.002Z"/>
</svg>
