<svg xmlns="http://www.w3.org/2000/svg" width="33" height="30" viewBox="0 0 33 30">
  <path d="M13.296 14.152a6.6 6.6 0 0 0-2.479-.548c.003-.012 0-.921.001-.933C17.715 10.151 16.059.139 8.618 0 1.18.14-.476 10.149 6.417 12.67c0 .009-.002.926.001.934a6.652 6.652 0 0 0-4.543 1.975A6.498 6.498 0 0 0 0 20.12v3.323a.538.538 0 0 0 .22.435 14.188 14.188 0 0 0 8.4 2.748c3.026 0 5.971-.964 8.4-2.748a.544.544 0 0 0 .22-.435V20.12a6.477 6.477 0 0 0-1.076-3.562 6.589 6.589 0 0 0-2.868-2.406Zm-2.66.53c.531 0 1.06.078 1.568.228l-1.03 1.227a.554.554 0 0 1-.402.196.594.594 0 0 1-.418-.159l-.687-.68c.351-.19.643-.47.845-.812h.124ZM7.76 17.166a1.621 1.621 0 0 1-.19-.151c.016.012 1.012-.99 1.047-1.02.027.022 1.044 1.046 1.048 1.02a1.645 1.645 0 0 1-1.905.151ZM3.116 6.526A5.412 5.412 0 0 1 4.73 2.681a5.542 5.542 0 0 1 3.889-1.594c7.3.298 7.298 10.578 0 10.875a5.542 5.542 0 0 1-3.89-1.594 5.412 5.412 0 0 1-1.613-3.844ZM8.62 13.05a6.665 6.665 0 0 0 1.099-.098v.642c0 .288-.116.565-.323.769a1.107 1.107 0 0 1-1.556 0 1.081 1.081 0 0 1-.322-.77v-.641c.364.063.732.096 1.102.098Zm-1.052 2.444c-.348.298-.726.875-1.103.838a.549.549 0 0 1-.395-.193l-1.036-1.23a5.617 5.617 0 0 1 1.69-.228c.2.342.493.623.844.813ZM1.1 20.12c.001-.976.268-1.935.773-2.775a5.478 5.478 0 0 1 2.096-1.997l1.254 1.488a1.645 1.645 0 0 0 1.211.583c.126.164.27.313.43.444l-1.476 7.283A12.884 12.884 0 0 1 1.1 23.167V20.12Zm5.365 5.252 1.414-6.982c.483.131.993.131 1.476 0l1.415 6.985a12.513 12.513 0 0 1-4.305-.003Zm9.674-2.205a13.217 13.217 0 0 1-4.293 1.98l-1.476-7.284c.16-.131.304-.28.43-.443a1.68 1.68 0 0 0 1.217-.585l1.25-1.489a5.478 5.478 0 0 1 2.099 1.998c.505.84.772 1.799.773 2.776v3.047Z"/>
  <path d="M30.629 6.526h-8.804c-.584 0-1.143.23-1.556.637-.412.408-.644.961-.645 1.538v3.358a3.1 3.1 0 0 1-1.577-.117 3.069 3.069 0 0 1-1.308-.878.55.55 0 0 0-.611-.153.549.549 0 0 0-.356.514 6.022 6.022 0 0 0 1.074 3.357 6.132 6.132 0 0 0 2.778 2.205V27.19c0 .576.233 1.13.645 1.537.413.408.972.637 1.556.638h8.804c.583 0 1.143-.23 1.556-.638.412-.408.644-.96.645-1.537V8.7c0-.576-.233-1.129-.645-1.537a2.217 2.217 0 0 0-1.556-.637Zm1.1 20.664c0 .288-.116.564-.322.768a1.108 1.108 0 0 1-.778.32h-8.804c-.292-.001-.572-.116-.778-.32a1.083 1.083 0 0 1-.323-.768V16.606a.54.54 0 0 0-.377-.516 5.074 5.074 0 0 1-2.484-1.733 4.855 4.855 0 0 1-.809-1.653 4.126 4.126 0 0 0 3.285.295.55.55 0 0 0 .385-.518V8.7c0-.289.117-.565.323-.769.206-.204.486-.319.778-.319h8.804c.292 0 .572.115.778.319.206.204.322.48.323.769V27.19Z"/>
  <path d="M24.026 9.788a2.214 2.214 0 0 0-1.544.644 2.163 2.163 0 0 0-.637 1.531c0 .574.229 1.124.637 1.532.409.407.964.638 1.544.644a2.214 2.214 0 0 0 1.544-.644 2.162 2.162 0 0 0 0-3.063 2.214 2.214 0 0 0-1.544-.644Zm0 3.263a1.107 1.107 0 0 1-.77-.323 1.081 1.081 0 0 1 0-1.53c.204-.203.48-.319.77-.322.29.003.567.12.77.323a1.081 1.081 0 0 1 0 1.53c-.203.203-.48.319-.77.322ZM30.079 11.42h-2.201a.554.554 0 0 0-.384.162.54.54 0 0 0 .384.925h2.2a.554.554 0 0 0 .385-.162.54.54 0 0 0 0-.764.554.554 0 0 0-.384-.161ZM24.026 15.77a2.214 2.214 0 0 0-1.544.644 2.162 2.162 0 0 0-.637 1.531c0 .574.229 1.124.637 1.531.409.408.964.64 1.544.644a2.214 2.214 0 0 0 1.544-.644c.408-.407.637-.957.637-1.531 0-.573-.229-1.124-.637-1.531a2.214 2.214 0 0 0-1.544-.644Zm0 3.263a1.107 1.107 0 0 1-.77-.323 1.081 1.081 0 0 1 0-1.53c.204-.203.48-.32.77-.322.29.003.567.119.77.322a1.081 1.081 0 0 1 0 1.53c-.203.203-.48.32-.77.323ZM30.079 17.401h-2.201a.554.554 0 0 0-.384.162.541.541 0 0 0 .384.926h2.2a.554.554 0 0 0 .385-.162.54.54 0 0 0 0-.764.554.554 0 0 0-.384-.162ZM24.026 21.752a2.214 2.214 0 0 0-1.544.643 2.162 2.162 0 0 0-.637 1.532c0 .573.229 1.124.637 1.531.409.407.964.639 1.544.644a2.214 2.214 0 0 0 1.544-.644c.408-.407.637-.958.637-1.531 0-.574-.229-1.124-.637-1.532a2.214 2.214 0 0 0-1.544-.643Zm0 3.262a1.107 1.107 0 0 1-.77-.323 1.081 1.081 0 0 1 0-1.529c.204-.204.48-.32.77-.323.29.003.567.12.77.323a1.081 1.081 0 0 1 0 1.53c-.203.203-.48.32-.77.322ZM30.079 23.383h-2.201a.554.554 0 0 0-.384.162.54.54 0 0 0 .384.926h2.2a.554.554 0 0 0 .385-.162.54.54 0 0 0 0-.764.554.554 0 0 0-.384-.162Z"/>
</svg>
