<svg xmlns="http://www.w3.org/2000/svg" width="34" height="34" viewBox="0 0 34 34">
  <path d="M29.083 28.945A16.943 16.943 0 0 0 34 17c0-3.447-1.026-6.765-2.968-9.598a.68.68 0 0 0-1.121.77 15.536 15.536 0 0 1 2.713 8.148h-4.615a.68.68 0 0 0 0 1.36h4.614a15.574 15.574 0 0 1-4.1 9.881l-3.257-3.257a.68.68 0 0 0-.962.962l3.257 3.257a15.574 15.574 0 0 1-9.881 4.1V28.01a.68.68 0 0 0-1.36 0v4.613a15.577 15.577 0 0 1-9.882-4.1l3.258-3.257a.68.68 0 1 0-.962-.962l-3.258 3.258a15.58 15.58 0 0 1-4.099-9.882H5.99a.68.68 0 0 0 0-1.36H1.377a15.579 15.579 0 0 1 4.1-9.882l3.258 3.258a.677.677 0 0 0 .961 0 .68.68 0 0 0 0-.961L6.438 5.477a15.579 15.579 0 0 1 9.882-4.1V5.99a.68.68 0 0 0 1.36 0V1.383c2.65.115 5.224.889 7.482 2.272a.68.68 0 1 0 .71-1.16A16.971 16.971 0 0 0 17 0C12.348 0 8.128 1.88 5.056 4.917c-.026.02-.053.039-.077.063-.024.023-.043.05-.062.076A16.943 16.943 0 0 0 0 17c0 4.651 1.88 8.871 4.917 11.944.02.026.038.053.062.077.024.023.051.043.077.063A16.944 16.944 0 0 0 17 34c4.652 0 8.872-1.88 11.945-4.917.025-.02.052-.039.076-.063.023-.023.042-.05.062-.075Z"/>
  <path d="M13.61 12.39a.68.68 0 1 0-.992.93l3.886 4.145c.004.005.01.008.014.012l.011.014c.015.014.031.024.047.037.016.012.031.026.048.038a.666.666 0 0 0 .07.038c.017.008.032.018.048.024.028.012.058.02.088.027.013.004.026.01.04.012a.68.68 0 0 0 .259 0c.014-.002.027-.008.041-.011.029-.008.056-.015.084-.026l.049-.024c.023-.012.046-.023.068-.037.017-.01.032-.024.047-.036.016-.012.033-.022.047-.036l.012-.014.014-.011 15.672-16.32a.68.68 0 0 0-.98-.942L17.005 16.013 13.61 12.39Z"/>
</svg>
