<svg width="28" height="28" viewBox="0 0 28 28" fill="none" xmlns="http://www.w3.org/2000/svg">
<path d="M14.2604 0.139649C11.9001 0.138855 9.58022 0.75214 7.52867 1.91925C5.47712 3.08635 3.76451 4.76712 2.55911 6.7964C1.35371 8.82569 0.696997 11.1337 0.653495 13.4936C0.609994 15.8535 1.1812 18.1841 2.311 20.2564L0.701113 25.9023C0.644467 26.1006 0.642957 26.3105 0.696749 26.5096C0.75054 26.7086 0.857594 26.8892 1.00639 27.032C1.15519 27.1747 1.34009 27.2741 1.5412 27.3196C1.74231 27.3651 1.95201 27.3548 2.14774 27.29L7.44901 25.5237C9.25584 26.5678 11.2786 27.1822 13.3609 27.3195C15.4432 27.4568 17.5292 27.1132 19.4575 26.3153C21.3857 25.5174 23.1046 24.2866 24.4811 22.7182C25.8576 21.1498 26.8548 19.2857 27.3957 17.2702C27.9365 15.2546 28.0064 13.1417 27.6 11.0949C27.1936 9.04801 26.3218 7.12208 25.052 5.46605C23.7822 3.81003 22.1485 2.46832 20.2772 1.54471C18.4059 0.621097 16.3472 0.140347 14.2604 0.139649ZM9.72552 11.4769C9.72552 11.1762 9.84497 10.8878 10.0576 10.6752C10.2702 10.4626 10.5586 10.3431 10.8592 10.3431H17.6616C17.9622 10.3431 18.2506 10.4626 18.4632 10.6752C18.6758 10.8878 18.7953 11.1762 18.7953 11.4769C18.7953 11.7775 18.6758 12.0659 18.4632 12.2785C18.2506 12.4911 17.9622 12.6106 17.6616 12.6106H10.8592C10.5586 12.6106 10.2702 12.4911 10.0576 12.2785C9.84497 12.0659 9.72552 11.7775 9.72552 11.4769ZM10.8592 14.878H15.3941C15.6948 14.878 15.9832 14.9975 16.1958 15.2101C16.4084 15.4227 16.5278 15.7111 16.5278 16.0117C16.5278 16.3124 16.4084 16.6008 16.1958 16.8134C15.9832 17.026 15.6948 17.1455 15.3941 17.1455H10.8592C10.5586 17.1455 10.2702 17.026 10.0576 16.8134C9.84497 16.6008 9.72552 16.3124 9.72552 16.0117C9.72552 15.7111 9.84497 15.4227 10.0576 15.2101C10.2702 14.9975 10.5586 14.878 10.8592 14.878Z" fill="white"/>
</svg>
