<svg width="72" height="63" viewBox="0 0 72 63" fill="none" xmlns="http://www.w3.org/2000/svg">
<path d="M19.6848 49.2598C20.1374 49.697 20.7437 49.9389 21.373 49.9334C22.0022 49.9279 22.6042 49.6755 23.0492 49.2306C23.4941 48.7856 23.7465 48.1836 23.752 47.5544C23.7575 46.9251 23.5156 46.3188 23.0784 45.8662L15.612 38.3998L23.0784 30.9334C23.5156 30.4807 23.7575 29.8745 23.752 29.2452C23.7465 28.616 23.4941 28.014 23.0492 27.569C22.6042 27.124 22.0022 26.8716 21.373 26.8662C20.7437 26.8607 20.1374 27.1026 19.6848 27.5398L10.5216 36.703C10.0717 37.1531 9.81891 37.7634 9.81891 38.3998C9.81891 39.0362 10.0717 39.6465 10.5216 40.0966L19.6848 49.2598ZM48.9216 49.2598C49.3717 49.7097 49.982 49.9625 50.6184 49.9625C51.2548 49.9625 51.8651 49.7097 52.3152 49.2598L61.4784 40.0966C61.9283 39.6465 62.1811 39.0362 62.1811 38.3998C62.1811 37.7634 61.9283 37.1531 61.4784 36.703L52.3152 27.5398C51.8626 27.1026 51.2563 26.8607 50.627 26.8662C49.9978 26.8716 49.3958 27.124 48.9508 27.569C48.5058 28.014 48.2534 28.616 48.248 29.2452C48.2425 29.8745 48.4844 30.4807 48.9216 30.9334L56.388 38.3998L48.9216 45.8662C48.4717 46.3163 48.2189 46.9266 48.2189 47.563C48.2189 48.1994 48.4717 48.8097 48.9216 49.2598ZM30.7896 51.4294C31.381 51.6651 32.0417 51.6565 32.6267 51.4054C33.2117 51.1543 33.6731 50.6812 33.9096 50.0902L42.5496 28.4902C42.6665 28.1974 42.7246 27.8844 42.7206 27.5692C42.7166 27.2539 42.6505 26.9426 42.5262 26.6528C42.4018 26.3631 42.2216 26.1007 41.9958 25.8807C41.7701 25.6606 41.5032 25.4871 41.2104 25.3702C40.9176 25.2533 40.6046 25.1952 40.2894 25.1992C39.9741 25.2032 39.6628 25.2693 39.373 25.3936C39.0833 25.518 38.8209 25.6982 38.6009 25.9239C38.3808 26.1497 38.2073 26.4166 38.0904 26.7094L29.4504 48.3094C29.3334 48.6022 29.2752 48.9152 29.2791 49.2304C29.2831 49.5457 29.3491 49.8571 29.4735 50.1469C29.5979 50.4366 29.7781 50.699 30.0039 50.9191C30.2298 51.1391 30.4967 51.3126 30.7896 51.4294Z" fill="white"/>
<path d="M62.4 0H9.6C7.0547 0.00254149 4.61438 1.01478 2.81458 2.81458C1.01478 4.61438 0.00254149 7.0547 0 9.6L0 52.8C0.00254149 55.3453 1.01478 57.7856 2.81458 59.5854C4.61438 61.3852 7.0547 62.3975 9.6 62.4H62.4C64.9453 62.3975 67.3856 61.3852 69.1854 59.5854C70.9852 57.7856 71.9975 55.3453 72 52.8V9.6C71.9975 7.0547 70.9852 4.61438 69.1854 2.81458C67.3856 1.01478 64.9453 0.00254149 62.4 0ZM26.424 7.2H26.448C27.0835 7.20318 27.6917 7.45825 28.1394 7.90929C28.5871 8.36032 28.8376 8.97049 28.836 9.60597C28.8344 10.2414 28.5808 10.8504 28.1309 11.2991C27.681 11.7479 27.0715 12 26.436 12C25.8005 12 25.191 11.7479 24.7411 11.2991C24.2912 10.8504 24.0376 10.2414 24.036 9.60597C24.0344 8.97049 24.2849 8.36032 24.7326 7.90929C25.1803 7.45825 25.7885 7.20318 26.424 7.2ZM19.224 7.2H19.248C19.8835 7.20318 20.4917 7.45825 20.9394 7.90929C21.3871 8.36032 21.6376 8.97049 21.636 9.60597C21.6344 10.2414 21.3808 10.8504 20.9309 11.2991C20.481 11.7479 19.8715 12 19.236 12C18.6005 12 17.991 11.7479 17.5411 11.2991C17.0912 10.8504 16.8376 10.2414 16.836 9.60597C16.8344 8.97049 17.0849 8.36032 17.5326 7.90929C17.9803 7.45825 18.5885 7.20318 19.224 7.2ZM12.024 7.2H12.048C12.6835 7.20318 13.2917 7.45825 13.7394 7.90929C14.1871 8.36032 14.4376 8.97049 14.436 9.60597C14.4344 10.2414 14.1808 10.8504 13.7309 11.2991C13.281 11.7479 12.6715 12 12.036 12C11.4005 12 10.791 11.7479 10.3411 11.2991C9.89115 10.8504 9.6376 10.2414 9.63601 9.60597C9.63442 8.97049 9.88493 8.36032 10.3326 7.90929C10.7803 7.45825 11.3885 7.20318 12.024 7.2ZM67.2 52.8C67.1987 54.0726 66.6926 55.2928 65.7927 56.1927C64.8928 57.0926 63.6727 57.5987 62.4 57.6H9.6C8.32735 57.5987 7.10719 57.0926 6.20729 56.1927C5.30739 55.2928 4.80127 54.0726 4.8 52.8V19.2H67.2V52.8Z" fill="white"/>
</svg>
