<svg width="64" height="64" viewBox="0 0 64 64" fill="none" xmlns="http://www.w3.org/2000/svg">
<path fill-rule="evenodd" clip-rule="evenodd" d="M51.4286 4.57129H49.1429C48.512 4.57129 48 5.08329 48 5.71415C48 6.345 48.512 6.857 49.1429 6.857H51.4286C52.0594 6.857 52.5714 6.345 52.5714 5.71415C52.5714 5.08329 52.0594 4.57129 51.4286 4.57129ZM44.5714 4.57129H42.2857C41.6549 4.57129 41.1429 5.08329 41.1429 5.71415C41.1429 6.345 41.6549 6.857 42.2857 6.857H44.5714C45.2023 6.857 45.7143 6.345 45.7143 5.71415C45.7143 5.08329 45.2023 4.57129 44.5714 4.57129ZM37.7143 4.57129H35.4286C34.7977 4.57129 34.2857 5.08329 34.2857 5.71415C34.2857 6.345 34.7977 6.857 35.4286 6.857H37.7143C38.3451 6.857 38.8571 6.345 38.8571 5.71415C38.8571 5.08329 38.3451 4.57129 37.7143 4.57129ZM56 9.14272H8C7.36914 9.14272 6.85714 9.65472 6.85714 10.2856C6.85714 10.9164 7.36914 11.4284 8 11.4284H56C56.6309 11.4284 57.1429 10.9164 57.1429 10.2856C57.1429 9.65472 56.6309 9.14272 56 9.14272ZM8 11.4284H3.42857C1.536 11.4284 0 12.9644 0 14.857V51.4284C0 53.321 1.536 54.857 3.42857 54.857H60.5714C62.464 54.857 64 53.321 64 51.4284V14.857C64 12.9644 62.464 11.4284 60.5714 11.4284H56C55.3691 11.4284 54.8571 11.9404 54.8571 12.5713C54.8571 13.2021 55.3691 13.7141 56 13.7141H60.5714C61.2023 13.7141 61.7143 14.2261 61.7143 14.857V51.4284C61.7143 52.0593 61.2023 52.5713 60.5714 52.5713H3.42857C2.79771 52.5713 2.28571 52.0593 2.28571 51.4284V14.857C2.28571 14.2261 2.79771 13.7141 3.42857 13.7141H8C8.63086 13.7141 9.14286 13.2021 9.14286 12.5713C9.14286 11.9404 8.63086 11.4284 8 11.4284Z" fill="url(#paint0_linear_0_309)"/>
<path fill-rule="evenodd" clip-rule="evenodd" d="M26.3589 53.313L22.9303 62.4558C22.7086 63.0467 23.008 63.7061 23.5989 63.9267C24.1897 64.1484 24.8492 63.849 25.0697 63.2581L28.4983 54.1153C28.72 53.5244 28.4206 52.865 27.8297 52.6444C27.2389 52.4227 26.5794 52.7221 26.3589 53.313ZM35.5017 54.1153L38.9303 63.2581C39.1509 63.849 39.8103 64.1484 40.4012 63.9267C40.992 63.7061 41.2914 63.0467 41.0697 62.4558L37.6412 53.313C37.4206 52.7221 36.7612 52.4227 36.1703 52.6444C35.5794 52.865 35.28 53.5244 35.5017 54.1153Z" fill="url(#paint1_linear_0_309)"/>
<path fill-rule="evenodd" clip-rule="evenodd" d="M21.7143 64H42.2858C42.9166 64 43.4286 63.488 43.4286 62.8571C43.4286 62.2263 42.9166 61.7143 42.2858 61.7143H21.7143C21.0835 61.7143 20.5715 62.2263 20.5715 62.8571C20.5715 63.488 21.0835 64 21.7143 64ZM57.1429 46.8571V3.42857C57.1429 1.536 55.6069 0 53.7143 0H10.2857C8.39318 0 6.85718 1.536 6.85718 3.42857V46.8571C6.85718 47.488 7.36918 48 8.00003 48C8.63089 48 9.14289 47.488 9.14289 46.8571V3.42857C9.14289 2.79771 9.65489 2.28571 10.2857 2.28571H53.7143C54.3452 2.28571 54.8572 2.79771 54.8572 3.42857V46.8571C54.8572 47.488 55.3692 48 56 48C56.6309 48 57.1429 47.488 57.1429 46.8571Z" fill="url(#paint2_linear_0_309)"/>
<path fill-rule="evenodd" clip-rule="evenodd" d="M1.14286 48.0001H62.8571C63.488 48.0001 64 47.4881 64 46.8572C64 46.2264 63.488 45.7144 62.8571 45.7144H1.14286C0.512 45.7144 0 46.2264 0 46.8572C0 47.4881 0.512 48.0001 1.14286 48.0001ZM28.5714 17.6675V14.8572C28.5714 14.2264 29.0834 13.7144 29.7143 13.7144H34.2857C34.9166 13.7144 35.4286 14.2264 35.4286 14.8572V17.6675C36.0743 17.8709 36.6949 18.1292 37.2846 18.4378L39.2731 16.4492C39.7189 16.0035 40.4434 16.0035 40.8891 16.4492L44.1223 19.6824C44.568 20.1281 44.568 20.8526 44.1223 21.2984L42.1337 23.2869C42.4423 23.8766 42.7017 24.4972 42.904 25.1429H45.7143C46.3451 25.1429 46.8571 25.6549 46.8571 26.2858V30.8572C46.8571 31.4881 46.3451 32.0001 45.7143 32.0001H42.904C42.7006 32.6458 42.4423 33.2664 42.1337 33.8561L44.1223 35.8446C44.568 36.2904 44.568 37.0149 44.1223 37.4606L40.8891 40.6938C40.4434 41.1395 39.7189 41.1395 39.2731 40.6938L37.2846 38.7052C36.6949 39.0138 36.0743 39.2732 35.4286 39.4755V42.2858C35.4286 42.9166 34.9166 43.4286 34.2857 43.4286H29.7143C29.0834 43.4286 28.5714 42.9166 28.5714 42.2858V39.4755C27.9257 39.2721 27.3051 39.0138 26.7154 38.7052L24.7269 40.6938C24.2811 41.1395 23.5566 41.1395 23.1109 40.6938L19.8777 37.4606C19.432 37.0149 19.432 36.2904 19.8777 35.8446L21.8663 33.8561C21.5577 33.2664 21.2983 32.6458 21.096 32.0001H18.2857C17.6549 32.0001 17.1429 31.4881 17.1429 30.8572V26.2858C17.1429 25.6549 17.6549 25.1429 18.2857 25.1429H21.096C21.2994 24.4972 21.5577 23.8766 21.8663 23.2869L19.8777 21.2984C19.432 20.8526 19.432 20.1281 19.8777 19.6824L23.1109 16.4492C23.5566 16.0035 24.2811 16.0035 24.7269 16.4492L26.7154 18.4378C27.3051 18.1292 27.9257 17.8698 28.5714 17.6675ZM33.1429 16.0001H30.8571V18.5406C30.8571 19.0744 30.488 19.5372 29.968 19.6561C28.9486 19.8869 27.9931 20.2892 27.1349 20.8309C26.6834 21.1155 26.0949 21.0504 25.7166 20.6721L23.9189 18.8744L22.3029 20.4904L24.1006 22.2881C24.4789 22.6664 24.544 23.2549 24.2594 23.7064C23.7177 24.5646 23.3154 25.5201 23.0846 26.5395C22.9657 27.0595 22.5029 27.4286 21.9691 27.4286H19.4286V29.7144H21.9691C22.5029 29.7144 22.9657 30.0835 23.0846 30.6035C23.3154 31.6229 23.7177 32.5784 24.2594 33.4366C24.544 33.8881 24.4789 34.4766 24.1006 34.8549L22.3029 36.6526L23.9189 38.2686L25.7166 36.4709C26.0949 36.0926 26.6834 36.0275 27.1349 36.3121C27.9931 36.8538 28.9486 37.2561 29.968 37.4869C30.488 37.6058 30.8571 38.0686 30.8571 38.6024V41.1429H33.1429V38.6024C33.1429 38.0686 33.512 37.6058 34.032 37.4869C35.0514 37.2561 36.0069 36.8538 36.8651 36.3121C37.3166 36.0275 37.9051 36.0926 38.2834 36.4709L40.0811 38.2686L41.6971 36.6526L39.8994 34.8549C39.5211 34.4766 39.456 33.8881 39.7406 33.4366C40.2823 32.5784 40.6846 31.6229 40.9154 30.6035C41.0343 30.0835 41.4971 29.7144 42.0309 29.7144H44.5714V27.4286H42.0309C41.4971 27.4286 41.0343 27.0595 40.9154 26.5395C40.6846 25.5201 40.2823 24.5646 39.7406 23.7064C39.456 23.2549 39.5211 22.6664 39.8994 22.2881L41.6971 20.4904L40.0811 18.8744L38.2834 20.6721C37.9051 21.0504 37.3166 21.1155 36.8651 20.8309C36.0069 20.2892 35.0514 19.8869 34.032 19.6561C33.512 19.5372 33.1429 19.0744 33.1429 18.5406V16.0001Z" fill="url(#paint3_linear_0_309)"/>
<path fill-rule="evenodd" clip-rule="evenodd" d="M32 21.7144C28.216 21.7144 25.1428 24.7875 25.1428 28.5715C25.1428 32.3555 28.216 35.4286 32 35.4286C35.784 35.4286 38.8571 32.3555 38.8571 28.5715C38.8571 24.7875 35.784 21.7144 32 21.7144ZM32 24.0001C34.5234 24.0001 36.5714 26.0481 36.5714 28.5715C36.5714 31.0949 34.5234 33.1429 32 33.1429C29.4765 33.1429 27.4285 31.0949 27.4285 28.5715C27.4285 26.0481 29.4765 24.0001 32 24.0001Z" fill="url(#paint4_linear_0_309)"/>
<defs>
<linearGradient id="paint0_linear_0_309" x1="1.96648" y1="54.857" x2="64" y2="54.857" gradientUnits="userSpaceOnUse">
<stop stop-color="#0077FF"/>
<stop offset="1" stop-color="#00BBFF"/>
</linearGradient>
<linearGradient id="paint1_linear_0_309" x1="23.419" y1="63.9998" x2="41.1429" y2="63.9998" gradientUnits="userSpaceOnUse">
<stop stop-color="#0077FF"/>
<stop offset="1" stop-color="#00BBFF"/>
</linearGradient>
<linearGradient id="paint2_linear_0_309" x1="8.40227" y1="64" x2="57.1429" y2="64" gradientUnits="userSpaceOnUse">
<stop stop-color="#0077FF"/>
<stop offset="1" stop-color="#00BBFF"/>
</linearGradient>
<linearGradient id="paint3_linear_0_309" x1="1.96648" y1="48.0001" x2="64" y2="48.0001" gradientUnits="userSpaceOnUse">
<stop stop-color="#0077FF"/>
<stop offset="1" stop-color="#00BBFF"/>
</linearGradient>
<linearGradient id="paint4_linear_0_309" x1="25.5642" y1="35.4286" x2="38.8571" y2="35.4286" gradientUnits="userSpaceOnUse">
<stop stop-color="#0077FF"/>
<stop offset="1" stop-color="#00BBFF"/>
</linearGradient>
</defs>
</svg>
