<svg width="58" height="57" viewBox="0 0 58 57" fill="none" xmlns="http://www.w3.org/2000/svg">
<path d="M7.26082 40.3619C7.85334 39.901 8.70921 40.0092 9.17007 40.6017C9.63092 41.1942 9.52276 42.0501 8.93024 42.511L2.76985 47.2935L2.72282 53.5903L10.1435 53.1764L14.2489 46.6539C14.6486 46.0191 15.4856 45.831 16.1205 46.2307C16.7553 46.6304 16.9434 47.4675 16.5437 48.1023L12.0904 55.1797C11.8694 55.5606 11.4649 55.824 10.99 55.8522L1.42961 56.3836C1.4014 56.3836 1.37788 56.3836 1.34967 56.3836C0.601958 56.3789 -0.00467543 55.7723 2.71571e-05 55.0245L0.0611608 46.7245C0.0282427 46.2871 0.211643 45.8404 0.583148 45.5488L7.26082 40.3619ZM18.942 25.3042C22.041 16.0448 26.2122 9.48471 32.0858 5.34643C38.185 1.05767 46.0195 -0.56942 56.2853 0.173589C56.9954 0.225317 57.5362 0.808438 57.5503 1.50442C58.5425 12.6213 56.3887 20.5029 51.7896 26.4751C47.3598 32.217 40.7244 36.1013 32.4808 39.3602V50.2091C32.4808 50.7405 32.1751 51.2013 31.7284 51.4271L23.339 56.6093C22.7041 57.0043 21.867 56.8068 21.472 56.1673C21.3686 55.998 21.3027 55.8146 21.2792 55.6312C19.4217 41.4341 17.4466 40.7522 5.84064 36.7362C4.45808 36.2565 2.95795 35.7392 1.9469 35.3818C1.24151 35.1326 0.870005 34.3567 1.11924 33.6466C1.17097 33.4961 1.25091 33.3597 1.34497 33.2422L6.87521 25.3559C7.15266 24.9609 7.59941 24.7587 8.05085 24.7775L18.942 25.3042ZM39.8215 12.0946C41.4016 12.0946 42.8312 12.7342 43.8657 13.7688C44.9003 14.8033 45.5399 16.2329 45.5399 17.813C45.5399 19.3931 44.9003 20.8226 43.8657 21.8572C42.8312 22.8918 41.4016 23.5313 39.8215 23.5313C38.2415 23.5313 36.8119 22.8918 35.7773 21.8572C34.7427 20.8226 34.1032 19.3931 34.1032 17.813C34.1032 16.2329 34.7427 14.8033 35.7773 13.7688C36.8119 12.7342 38.2415 12.0946 39.8215 12.0946ZM42.549 15.0855C41.853 14.3895 40.889 13.9569 39.8215 13.9569C38.7587 13.9569 37.7947 14.3895 37.094 15.0855C36.398 15.7815 35.9654 16.7455 35.9654 17.813C35.9654 18.8758 36.398 19.8398 37.094 20.5405C37.79 21.2365 38.754 21.6691 39.8215 21.6691C40.8843 21.6691 41.8483 21.2365 42.549 20.5405C43.245 19.8445 43.6776 18.8805 43.6776 17.813C43.6776 16.7455 43.245 15.7815 42.549 15.0855ZM33.647 7.57076C28.0933 11.4833 24.1572 17.8882 21.2181 27.0536C21.0582 27.6602 20.4939 28.0975 19.8402 28.0646L8.66219 27.5191L4.53332 33.4115C5.408 33.7171 6.08047 33.9523 6.72472 34.1733C19.1019 38.4526 21.6742 39.3414 23.6869 53.2046L29.758 49.4567V38.4385H29.7627C29.7627 37.893 30.0966 37.3804 30.6327 37.1735C38.8434 34.0134 45.4035 30.3078 49.6358 24.8151C53.6753 19.5718 55.6316 12.6119 54.9309 2.81174C45.8879 2.31326 38.9798 3.82279 33.647 7.57076Z" fill="url(#paint0_linear_0_298)"/>
<defs>
<linearGradient id="paint0_linear_0_298" x1="1.7756" y1="56.8128" x2="57.7878" y2="56.8128" gradientUnits="userSpaceOnUse">
<stop stop-color="#0077FF"/>
<stop offset="1" stop-color="#00BBFF"/>
</linearGradient>
</defs>
</svg>
