<svg xmlns="http://www.w3.org/2000/svg" width="36" height="35" viewBox="0 0 36 35">
  <path d="M20.458 23.394a6.582 6.582 0 1 0-5.912 0 11.469 11.469 0 0 0-8.477 11.06.547.547 0 0 0 1.093 0 10.354 10.354 0 0 1 20.707 0 .547.547 0 0 0 1.094 0 11.47 11.47 0 0 0-8.505-11.06Zm-8.444-5.877a5.488 5.488 0 1 1 10.976 0 5.488 5.488 0 0 1-10.976 0ZM19.636 7.654a.547.547 0 0 1-.255-.063l-1.879-.987-1.878.987a.547.547 0 0 1-.793-.577l.358-2.095-1.515-1.477a.546.546 0 0 1 .3-.932l2.098-.306.94-1.901a.547.547 0 0 1 .98 0l.94 1.914 2.098.293a.547.547 0 0 1 .3.932L19.817 4.92l.358 2.092a.546.546 0 0 1-.547.64l.009.003Zm-2.134-2.215c.09 0 .176.021.255.063l1.151.604-.219-1.283a.547.547 0 0 1 .156-.484l.933-.908-1.288-.186a.547.547 0 0 1-.41-.298l-.578-1.167-.574 1.167a.547.547 0 0 1-.413.298l-1.288.186.933.908a.546.546 0 0 1 .156.484l-.22 1.283 1.152-.604a.547.547 0 0 1 .254-.063ZM8.424 13.396a.548.548 0 0 1-.255-.062l-1.878-.988-1.88.988a.547.547 0 0 1-.792-.577l.358-2.095-1.515-1.477a.547.547 0 0 1 .304-.932l2.097-.307.94-1.9a.547.547 0 0 1 .98 0l.94 1.914 2.098.306a.548.548 0 0 1 .298.92l-1.515 1.476.358 2.092a.547.547 0 0 1-.547.64l.009.002ZM6.29 11.181c.088 0 .175.022.254.063l1.151.605-.219-1.283a.547.547 0 0 1 .156-.484l.933-.908-1.288-.186a.547.547 0 0 1-.41-.298L6.29 7.522 5.716 8.69a.547.547 0 0 1-.413.298l-1.288.186.933.908a.547.547 0 0 1 .156.484l-.22 1.283 1.152-.605a.547.547 0 0 1 .255-.063ZM30.847 13.396a.548.548 0 0 1-.254-.062l-1.879-.988-1.879.988a.547.547 0 0 1-.793-.577l.359-2.095-1.515-1.477a.546.546 0 0 1 .303-.932l2.098-.307.94-1.9a.547.547 0 0 1 .98 0l.94 1.914 2.098.306a.547.547 0 0 1 .298.92l-1.515 1.476.358 2.092a.547.547 0 0 1-.547.64l.008.002Zm-2.133-2.215c.089 0 .176.022.254.063l1.152.605-.22-1.283a.547.547 0 0 1 .157-.484l.932-.908-1.288-.186a.546.546 0 0 1-.41-.298l-.577-1.168-.574 1.168a.547.547 0 0 1-.413.298l-1.288.186.932.908a.548.548 0 0 1 .156.484l-.219 1.283 1.152-.605a.547.547 0 0 1 .254-.063ZM1.866 24.062a.547.547 0 0 1-.547-.64l.366-2.095-1.52-1.477a.546.546 0 0 1 .303-.932l2.1-.307.938-1.9a.547.547 0 0 1 .982 0l.938 1.9 2.1.307a.548.548 0 0 1 .304.932l-1.52 1.477.358 2.092a.547.547 0 0 1-.793.577l-1.876-.987-1.879.99a.548.548 0 0 1-.254.063Zm-.142-4.223.93.908a.547.547 0 0 1 .158.484l-.222 1.283 1.154-.605a.547.547 0 0 1 .51 0l1.15.605-.207-1.283a.547.547 0 0 1 .158-.484l.93-.908L5 19.653a.546.546 0 0 1-.413-.298l-.575-1.167-.577 1.167a.547.547 0 0 1-.426.298l-1.285.186ZM33.14 24.062a.549.549 0 0 1-.255-.063l-1.879-.987-1.876.987a.547.547 0 0 1-.793-.577l.358-2.095-1.52-1.477a.546.546 0 0 1 .303-.932l2.1-.307.939-1.9a.547.547 0 0 1 .981 0l.938 1.9 2.1.307a.548.548 0 0 1 .304.932l-1.52 1.477.358 2.092a.547.547 0 0 1-.547.64l.008.003Zm-2.134-2.216c.089 0 .176.022.254.063l1.154.605-.221-1.283a.548.548 0 0 1 .159-.484l.93-.908-1.286-.186a.546.546 0 0 1-.413-.298l-.577-1.167-.574 1.167a.548.548 0 0 1-.413.298l-1.285.186.93.908a.546.546 0 0 1 .158.484l-.222 1.283 1.152-.605a.548.548 0 0 1 .254-.063Z"/>
</svg>
