<svg width="74" height="74" viewBox="0 0 74 74" fill="none" xmlns="http://www.w3.org/2000/svg">
<path d="M57.3194 9.97577H55.1129C52.533 9.97577 50.0989 10.5816 47.9161 11.6309V4.04762C47.9161 2.08658 46.3202 0.490723 44.3592 0.490723H4.04775C2.08671 0.490723 0.490851 2.08658 0.490851 4.04762V30.1315C0.490851 32.0925 2.08671 33.6884 4.04775 33.6884H22.3835L25.5456 38.4309H17.7845L14.7184 41.497V39.6166C14.7184 37.6555 13.1226 36.0597 11.1615 36.0597C9.2005 36.0597 7.60464 37.6555 7.60464 39.6166V48.6108L0 56.2154L17.7845 73.9999H56.2155C57.3988 73.9999 58.4623 73.3418 58.9923 72.2843L64.5149 61.2377V42.5249L68.303 39.2099C71.924 36.0431 74 31.4665 74 26.6564C74 17.4595 66.5163 9.97577 57.3194 9.97577ZM4.04775 31.3171C3.39328 31.3171 2.86211 30.7848 2.86211 30.1315V4.04762C2.86211 3.39433 3.39328 2.86199 4.04775 2.86199H44.3592C45.0137 2.86199 45.5448 3.39433 45.5448 4.04762V13.0134C42.5286 15.1356 40.2415 18.2242 39.1484 21.8321H28.946V28.9459H38.6077C38.7192 29.7509 38.8911 30.5417 39.1164 31.3171H28.946V38.0717C28.9472 38.3906 28.4658 38.5353 28.288 38.2709L23.6522 31.3171H4.04775ZM31.3173 26.5746V24.2034H38.6326C38.5176 24.9799 38.4394 25.7672 38.4358 26.5746H31.3173ZM31.3173 38.0717V33.6884H39.9937C40.8094 35.4408 41.9393 37.0414 43.3277 38.4309H31.2817C31.2971 38.3124 31.3173 38.195 31.3173 38.0717ZM52.6586 28.9459H51.473C50.8185 28.9459 50.2874 28.4135 50.2874 27.7602C50.2874 27.107 50.8185 26.5746 51.473 26.5746C52.1275 26.5746 52.6586 27.107 52.6586 27.7602V28.9459ZM62.1437 59.7723H57.4012V43.1735H62.1437V59.7723ZM50.7403 66.8861H24.2035V45.5447H47.9161V61.2377L50.7403 66.8861ZM51.0201 62.1436H61.411L59.0397 66.8861H53.3914L51.0201 62.1436ZM57.4012 40.8022H55.0299V31.3171H57.4012V40.8022ZM55.0299 43.1735V59.7723H50.2874V43.1735H55.0299ZM47.9161 43.1735H21.8322V69.2573H51.9259L53.1115 71.6286H19.461V40.8022H45.9468L47.9161 42.5249V43.1735ZM9.9759 39.6166C9.9759 38.9633 10.5071 38.4309 11.1615 38.4309C11.816 38.4309 12.3472 38.9633 12.3472 39.6166V43.8682L9.9759 46.2395V39.6166ZM7.60464 51.9637V56.2154C7.60464 58.1764 9.2005 59.7723 11.1615 59.7723C13.1226 59.7723 14.7184 58.1764 14.7184 56.2154C14.7184 54.2544 13.1226 52.6585 11.1615 52.6585C10.7442 52.6585 10.3482 52.7439 9.9759 52.8767V49.5925L17.0897 42.4787V69.9521L3.35297 56.2154L7.60464 51.9637ZM9.9759 56.2154C9.9759 55.5621 10.5071 55.0298 11.1615 55.0298C11.816 55.0298 12.3472 55.5621 12.3472 56.2154C12.3472 56.8687 11.816 57.401 11.1615 57.401C10.5071 57.401 9.9759 56.8687 9.9759 56.2154ZM55.5599 71.2231L54.577 69.2573H57.8541L56.8712 71.2231C56.621 71.7246 55.81 71.7235 55.5599 71.2231ZM66.7428 37.4267L62.8847 40.8022H59.7724V31.3171H60.9581C62.9191 31.3171 64.5149 29.7213 64.5149 27.7602C64.5149 25.7992 62.9191 24.2034 60.9581 24.2034C58.997 24.2034 57.4012 25.7992 57.4012 27.7602V28.9459H55.0299V27.7602C55.0299 25.7992 53.434 24.2034 51.473 24.2034C49.512 24.2034 47.9161 25.7992 47.9161 27.7602C47.9161 29.7213 49.512 31.3171 51.473 31.3171H52.6586V40.8022H49.5464L45.6883 37.4267C42.5831 34.708 40.8023 30.7836 40.8023 26.6564C40.8023 18.766 47.2213 12.347 55.1117 12.347H57.3182C65.2097 12.347 71.6287 18.766 71.6287 26.6564C71.6287 30.7836 69.8479 34.708 66.7428 37.4267ZM59.7724 28.9459V27.7602C59.7724 27.107 60.3036 26.5746 60.9581 26.5746C61.6125 26.5746 62.1437 27.107 62.1437 27.7602C62.1437 28.4135 61.6125 28.9459 60.9581 28.9459H59.7724Z" fill="white"/>
<path d="M57.4013 2.86206H55.03V5.23332H57.4013V2.86206Z" fill="white"/>
<path d="M62.1437 2.86206H59.7725V5.23332H62.1437V2.86206Z" fill="white"/>
<path d="M52.6586 2.86206H50.2874V5.23332H52.6586V2.86206Z" fill="white"/>
<path d="M19.461 5.23315H5.2334V19.4607H19.461V5.23315ZM17.0897 17.0895H7.60466V7.60442H17.0897V17.0895Z" fill="white"/>
<path d="M5.2334 28.9458H14.7184V21.832H5.2334V28.9458ZM7.60466 24.2033H12.3472V26.5746H7.60466V24.2033Z" fill="white"/>
<path d="M17.0898 28.9458H26.5749V21.832H17.0898V28.9458ZM19.4611 24.2033H24.2036V26.5746H19.4611V24.2033Z" fill="white"/>
<path d="M26.5748 5.23315H21.8323V7.60442H26.5748V5.23315Z" fill="white"/>
<path d="M43.1736 5.23315H28.946V7.60442H43.1736V5.23315Z" fill="white"/>
<path d="M43.1736 9.97583H21.8323V12.3471H43.1736V9.97583Z" fill="white"/>
<path d="M31.3173 14.7183H21.8323V17.0895H31.3173V14.7183Z" fill="white"/>
<path d="M27.634 48.5707L25.5132 49.6311L32.6265 63.8578L34.7474 62.7974L27.634 48.5707Z" fill="white"/>
<path d="M33.562 48.5707L31.4412 49.6311L38.5545 63.8578L40.6754 62.7974L33.562 48.5707Z" fill="white"/>
<path d="M39.4902 48.5709L37.3694 49.6313L44.4827 63.8581L46.6036 62.7976L39.4902 48.5709Z" fill="white"/>
</svg>
