<svg width="72" height="72" viewBox="0 0 72 72" fill="none" xmlns="http://www.w3.org/2000/svg">
<path d="M68.4 28.8H44.4C42.42 28.8 40.8 30.42 40.8 32.4V51.6H29.295L28.44 50.745C28.215 50.52 27.915 50.4 27.585 50.4H6V26.4H61.2V24H6V3.6C6 2.94 6.54 2.4 7.2 2.4H64.8C65.46 2.4 66 2.94 66 3.6V4.8H22.8V7.2H66V13.2H68.4V3.6C68.4 1.62 66.78 0 64.8 0H7.2C5.22 0 3.6 1.62 3.6 3.6V50.4H1.2C0.54 50.4 0 50.94 0 51.6V55.2C0 57.18 1.62 58.8 3.6 58.8H40.8V68.4C40.8 70.38 42.42 72 44.4 72H68.4C70.38 72 72 70.38 72 68.4V32.4C72 30.42 70.38 28.8 68.4 28.8ZM40.8 56.4H3.6C2.94 56.4 2.4 55.86 2.4 55.2V52.8H27.105L27.96 53.655C28.185 53.88 28.485 54 28.815 54H40.815V56.4H40.8ZM64.8 69.6H48V67.2H64.8V69.6ZM69.6 68.4C69.6 69.06 69.06 69.6 68.4 69.6H67.2V66C67.2 65.34 66.66 64.8 66 64.8H46.8C46.14 64.8 45.6 65.34 45.6 66V69.6H44.4C43.74 69.6 43.2 69.06 43.2 68.4V45.6H69.6V68.4ZM69.6 43.2H43.2V32.4C43.2 31.74 43.74 31.2 44.4 31.2H68.4C69.06 31.2 69.6 31.74 69.6 32.4V43.2Z" fill="white"/>
<path d="M11.9996 65.295L13.5446 66.84L15.2396 65.145L11.6396 61.545C11.1746 61.08 10.4096 61.08 9.9446 61.545L6.3446 65.145L8.0396 66.84L9.5996 65.295V70.8C9.5996 71.46 10.1396 72 10.7996 72H38.3996V69.6H11.9996V65.295Z" fill="white"/>
<path d="M68.4 16.8001C68.4 16.1401 67.86 15.6001 67.2 15.6001H54V18.0001H66V22.3051L64.455 20.7601L62.76 22.4551L66.36 26.0551C66.825 26.5201 67.59 26.5201 68.055 26.0551L71.655 22.4551L69.96 20.7601L68.4 22.3051V16.8001Z" fill="white"/>
<path d="M10.8001 4.80005H8.40015V7.20005H10.8001V4.80005Z" fill="white"/>
<path d="M15.6001 4.80005H13.2001V7.20005H15.6001V4.80005Z" fill="white"/>
<path d="M20.4 4.80005H18V7.20005H20.4V4.80005Z" fill="white"/>
<path d="M49.1999 12H22.7999V14.4H49.1999V12Z" fill="white"/>
<path d="M45.6001 16.8H26.4001V19.2H45.6001V16.8Z" fill="white"/>
<path d="M25.2001 31.2C25.2001 30.54 24.6601 30 24.0001 30H9.60015C8.94015 30 8.40015 30.54 8.40015 31.2V40.8C8.40015 41.46 8.94015 42 9.60015 42H24.0001C24.6601 42 25.2001 41.46 25.2001 40.8V31.2ZM22.8001 39.6H10.8001V32.4H22.8001V39.6Z" fill="white"/>
<path d="M38.3999 32.4V30H28.7999C28.1399 30 27.5999 30.54 27.5999 31.2V40.8C27.5999 41.46 28.1399 42 28.7999 42H38.3999V39.6H29.9999V32.4H38.3999Z" fill="white"/>
<path d="M25.2001 44.3999H8.40015V46.7999H25.2001V44.3999Z" fill="white"/>
<path d="M38.3999 44.3999H27.5999V46.7999H38.3999V44.3999Z" fill="white"/>
<path d="M63.6001 33.6001H49.2001V36.0001H63.6001V33.6001Z" fill="white"/>
<path d="M61.2001 38.3999H51.6001V40.7999H61.2001V38.3999Z" fill="white"/>
<path d="M46.7999 57.6H65.9999C66.6599 57.6 67.1999 57.06 67.1999 56.4V49.2C67.1999 48.54 66.6599 48 65.9999 48H46.7999C46.1399 48 45.5999 48.54 45.5999 49.2V56.4C45.5999 57.06 46.1399 57.6 46.7999 57.6ZM47.9999 50.4H64.7999V55.2H47.9999V50.4Z" fill="white"/>
<path d="M67.1999 60H45.5999V62.4H67.1999V60Z" fill="white"/>
</svg>
