<svg width="73" height="73" viewBox="0 0 73 73" fill="none" xmlns="http://www.w3.org/2000/svg">
<path d="M30.6132 23.5483H25.9036V25.9032H30.6132V23.5483Z" fill="white"/>
<path d="M30.6126 65.9355H23.5481V68.2904H30.6126V65.9355Z" fill="white"/>
<path d="M71.9082 42.3518C71.4655 42.2046 71.1064 41.8667 70.9145 41.3993C70.7331 40.9613 70.7484 40.4703 70.9568 40.0547L71.4725 39.0256L66.9407 34.4937L65.9128 35.0094C65.496 35.2178 65.005 35.232 64.5423 35.04C64.1007 34.8599 63.764 34.5008 63.6156 34.0581L63.2518 32.9678H56.8455L56.4816 34.0592C56.3345 34.502 55.9965 34.8611 55.5291 35.053C55.0899 35.2331 54.6001 35.219 54.1845 35.0106L53.1554 34.4949L48.6235 39.0268L49.1393 40.0547C49.3477 40.4715 49.363 40.9613 49.1699 41.4252C48.9897 41.8667 48.6306 42.2035 48.1879 42.3518L47.0964 42.7156V49.122L48.1879 49.4858C48.6306 49.633 48.9897 49.9709 49.1816 50.4383C49.363 50.8763 49.3477 51.3673 49.1393 51.7829L48.6235 52.812L53.1554 57.3439L54.1833 56.8282C54.6001 56.6186 55.0911 56.6045 55.5538 56.7976C55.9954 56.9777 56.3321 57.3368 56.4805 57.7795L56.8443 58.871H63.2506L63.6145 57.7795C63.7616 57.3368 64.0996 56.9777 64.567 56.7858C65.0038 56.6033 65.4948 56.6186 65.9116 56.8282L66.9407 57.3439L71.4725 52.812L70.9568 51.7841C70.7484 51.3673 70.7331 50.8775 70.925 50.4136C71.1064 49.9721 71.4643 49.6341 71.9082 49.487L72.9997 49.1231V42.7168L71.9082 42.3518ZM70.6448 47.4677C69.7936 47.8939 69.1154 48.6216 68.7386 49.5388C68.3689 50.4324 68.3359 51.4179 68.6361 52.3175L66.4461 54.5075C65.5466 54.2096 64.5587 54.2426 63.6474 54.6182C62.7479 54.9867 62.0238 55.6637 61.5964 56.5162H58.4997C58.0723 55.6637 57.3459 54.9867 56.4287 54.6099C55.535 54.239 54.5471 54.2072 53.65 54.5075L51.46 52.3175C51.759 51.4179 51.726 50.4289 51.3493 49.5176C50.9796 48.618 50.3025 47.8939 49.4513 47.4677V44.3711C50.3037 43.9437 50.9807 43.2172 51.3575 42.3C51.7272 41.4063 51.7602 40.4208 51.46 39.5213L53.65 37.3313C54.5507 37.6304 55.5385 37.5974 56.4487 37.2206C57.3482 36.8521 58.0723 36.1751 58.4997 35.3226H61.5964C62.0238 36.1751 62.7502 36.8521 63.6674 37.2289C64.5599 37.5986 65.5478 37.6304 66.4461 37.3313L68.6361 39.5213C68.3371 40.4208 68.3701 41.4099 68.7468 42.32C69.1154 43.2196 69.7924 43.9437 70.6448 44.3711V47.4677Z" fill="white"/>
<path d="M60.0481 37.6775C55.5032 37.6775 51.8062 41.3746 51.8062 45.9194C51.8062 50.4643 55.5032 54.1614 60.0481 54.1614C64.5929 54.1614 68.29 50.4643 68.29 45.9194C68.29 41.3746 64.5929 37.6775 60.0481 37.6775ZM60.0481 51.8065C56.8019 51.8065 54.161 49.1656 54.161 45.9194C54.161 42.6733 56.8019 40.0323 60.0481 40.0323C63.2942 40.0323 65.9352 42.6733 65.9352 45.9194C65.9352 49.1656 63.2942 51.8065 60.0481 51.8065Z" fill="white"/>
<path d="M60.0484 42.3872C58.1009 42.3872 56.5161 43.972 56.5161 45.9195C56.5161 47.8669 58.1009 49.4517 60.0484 49.4517C61.9958 49.4517 63.5806 47.8669 63.5806 45.9195C63.5806 43.972 61.9958 42.3872 60.0484 42.3872ZM60.0484 47.0969C59.3996 47.0969 58.871 46.5682 58.871 45.9195C58.871 45.2707 59.3996 44.742 60.0484 44.742C60.6971 44.742 61.2258 45.2707 61.2258 45.9195C61.2258 46.5682 60.6971 47.0969 60.0484 47.0969Z" fill="white"/>
<path d="M40.0323 49.4516C38.0848 49.4516 36.5 47.8668 36.5 45.9194C36.5 43.9719 38.0848 42.3871 40.0323 42.3871H44.7419V39.2563L44.4488 38.9231C43.8389 38.2296 43.1395 37.6374 42.3883 37.1323V32.9677H49.4528C55.9451 32.9677 61.227 27.6858 61.227 21.1935C61.227 14.7013 55.9439 9.41935 49.4516 9.41935C48.9383 9.41935 48.4202 9.45468 47.9009 9.52414C45.1988 3.70652 39.4388 0 32.9677 0C25.9951 0 19.7877 4.4271 17.4576 10.9041C16.7653 10.7157 16.047 10.5968 15.3065 10.5968C11.5893 10.5968 8.40089 13.0399 7.39184 16.5274C3.24497 16.9537 0 20.4683 0 24.7258C0 29.2706 3.6971 32.9677 8.24193 32.9677H11.7742V68.2903C11.7742 70.8877 13.8865 73 16.4839 73H37.6774C40.2748 73 42.3871 70.8877 42.3871 68.2903V54.7064C43.1395 54.2013 43.84 53.6091 44.4499 52.9144L44.7443 52.58L44.7408 49.4516H40.0323ZM40.0323 40.0323C36.7861 40.0323 34.1452 42.6732 34.1452 45.9194C34.1452 49.1655 36.7861 51.8064 40.0323 51.8064H42.2576C40.7234 53.31 38.6582 54.1613 36.5 54.1613C33.129 54.1613 30.1313 52.1397 28.8633 49.0101L28.5654 48.2742H14.129V43.5645H28.5654L28.8633 42.8286C30.1313 39.699 33.129 37.6774 36.5 37.6774C38.6582 37.6774 40.7234 38.5287 42.2576 40.0323H40.0323ZM40.0323 28.2581H14.129V23.5484C14.129 22.2497 15.1852 21.1935 16.4839 21.1935H37.6774C38.9761 21.1935 40.0323 22.2497 40.0323 23.5484V28.2581ZM36.5 35.3226C32.4344 35.3226 28.7926 37.6079 27.01 41.2097H14.129V30.6129H40.0323V35.9419C38.9078 35.5416 37.7174 35.3226 36.5 35.3226ZM8.24193 30.6129C4.99579 30.6129 2.35484 27.972 2.35484 24.7258C2.35484 21.4797 4.99579 18.8387 8.31847 18.8387L9.33223 18.8564L9.5006 17.8556C9.97745 15.0145 12.4182 12.9516 15.3065 12.9516C17.7979 12.9516 20.0291 14.5282 20.8592 16.876L23.0798 16.0918C22.4393 14.2797 21.1912 12.815 19.6264 11.8484C21.5809 6.21795 26.9382 2.35484 32.9677 2.35484C38.7889 2.35484 43.9413 5.85766 46.0936 11.2797L46.4621 12.2087L47.4394 11.9955C48.1117 11.8484 48.7887 11.7742 49.4516 11.7742C54.6452 11.7742 58.871 16 58.871 21.1935C58.871 26.3871 54.6452 30.6129 49.4516 30.6129H42.3871V23.5484C42.3871 20.951 40.2748 18.8387 37.6774 18.8387H16.4839C13.8865 18.8387 11.7742 20.951 11.7742 23.5484V30.6129H8.24193ZM37.6774 70.6452H16.4839C15.1852 70.6452 14.129 69.589 14.129 68.2903V63.5806H40.0323V68.2903C40.0323 69.589 38.9761 70.6452 37.6774 70.6452ZM40.0323 61.2258H14.129V50.629H27.01C28.7926 54.2308 32.4344 56.5161 36.5 56.5161C37.7174 56.5161 38.9078 56.2971 40.0323 55.898V61.2258Z" fill="white"/>
<path d="M32.967 7.06456C36.9538 7.06456 40.5225 9.58777 41.8507 13.3437L44.0713 12.5596C42.4111 7.86402 37.9487 4.70972 32.967 4.70972C31.1303 4.70972 29.3688 5.12181 27.7334 5.93423L28.7813 8.04299C30.0882 7.39423 31.4964 7.06456 32.967 7.06456Z" fill="white"/>
<path d="M26.6876 9.46403L25.1181 7.7085C24.381 8.36903 23.7275 9.12022 23.1765 9.94206L25.1334 11.2514C25.5737 10.5932 26.0965 9.99151 26.6876 9.46403Z" fill="white"/>
<path d="M56.5164 21.1934C56.5164 17.2973 53.348 14.1289 49.4519 14.1289V16.4837C52.0493 16.4837 54.1616 18.596 54.1616 21.1934C54.1616 23.7908 52.0493 25.9031 49.4519 25.9031V28.2579C53.348 28.2579 56.5164 25.0895 56.5164 21.1934Z" fill="white"/>
<path d="M7.06417 37.6775H4.70933V40.0323H2.35449V42.3872H4.70933V44.742H7.06417V42.3872H9.41901V40.0323H7.06417V37.6775Z" fill="white"/>
<path d="M7.06417 47.0967H4.70933V49.4515H2.35449V51.8064H4.70933V54.1612H7.06417V51.8064H9.41901V49.4515H7.06417V47.0967Z" fill="white"/>
<path d="M7.06417 56.5161H4.70933V58.871H2.35449V61.2258H4.70933V63.5806H7.06417V61.2258H9.41901V58.871H7.06417V56.5161Z" fill="white"/>
<path d="M65.9352 11.7742H68.29V9.41939H70.6448V7.06456H68.29V4.70972H65.9352V7.06456H63.5803V9.41939H65.9352V11.7742Z" fill="white"/>
<path d="M65.9352 21.1934H68.29V18.8386H70.6448V16.4837H68.29V14.1289H65.9352V16.4837H63.5803V18.8386H65.9352V21.1934Z" fill="white"/>
<path d="M65.9352 30.6129H68.29V28.258H70.6448V25.9032H68.29V23.5483H65.9352V25.9032H63.5803V28.258H65.9352V30.6129Z" fill="white"/>
</svg>
