<svg width="73" height="73" viewBox="0 0 73 73" fill="none" xmlns="http://www.w3.org/2000/svg">
<g clip-path="url(#clip0_1_2)">
<path d="M59.436 43.7046C66.9147 43.7046 73 37.62 73 30.1405C73 22.9005 67.2971 16.9675 60.1478 16.5953C59.0218 12.0462 56.4207 7.92869 52.7698 4.93798C48.8817 1.75364 43.9684 0 38.9337 0C35.0471 0 31.2296 1.03394 27.8953 2.98992C24.8491 4.7769 22.2687 7.28754 20.3976 10.2783C15.5089 9.24194 10.4805 10.3965 6.50666 13.4912C2.37176 16.712 0 21.5659 0 26.8093C0 35.4149 6.50825 42.6318 14.9653 43.5951V51.3881L11.0915 66.7757C10.7281 68.2199 11.0637 69.7458 12.0119 70.9623C13.007 72.2382 14.5479 73 16.1341 73H56.8666C58.4528 73 59.9938 72.2382 60.9889 70.9615C61.9371 69.745 62.2727 68.2191 61.9085 66.775L58.0347 51.3865V43.703H59.436V43.7046ZM1.77981 26.8093C1.77981 22.1189 3.90082 17.7769 7.6001 14.8957C11.3129 12.0033 16.054 11.0043 20.6071 12.1541C20.9919 12.2509 21.3934 12.0819 21.5934 11.7399C25.1832 5.59658 31.8271 1.78062 38.9329 1.78062C48.3493 1.78062 56.6056 8.45558 58.5631 17.6523C58.6504 18.0633 59.0138 18.3569 59.4336 18.3569C65.9315 18.3569 71.2178 23.6425 71.2178 30.1405C71.2178 36.6385 65.9315 41.924 59.4344 41.924H58.0331V26.2634C58.0331 24.597 56.677 23.2409 55.0107 23.2409H41.5387V20.0836H46.1354C46.4869 20.0836 46.8051 19.8773 46.948 19.5559C47.0916 19.2353 47.0321 18.86 46.798 18.5989L37.1626 7.84934C36.9936 7.66128 36.7523 7.55337 36.4992 7.55337C36.2461 7.55337 36.0049 7.66128 35.8366 7.84934L26.2004 18.5989C25.9663 18.8608 25.9068 19.2353 26.0505 19.5559C26.1941 19.8765 26.5123 20.0836 26.863 20.0836H31.4597V23.2409H17.987C16.3198 23.2409 14.9645 24.597 14.9645 26.2634V41.801C7.49774 40.848 1.77981 34.4389 1.77981 26.8093ZM16.7451 50.6081V26.2634C16.7451 25.5786 17.3022 25.0216 17.987 25.0216H31.4597V25.8H18.4131C17.9211 25.8 17.5228 26.1983 17.5228 26.6903V48.9402C17.5228 49.4321 17.9211 49.8305 18.4131 49.8305H54.5846C55.0765 49.8305 55.4749 49.4321 55.4749 48.9402V26.6903C55.4749 26.1983 55.0765 25.8 54.5846 25.8H41.5387V25.0216H55.0115C55.6962 25.0216 56.2533 25.5786 56.2533 26.2634V50.6081H16.7451ZM32.35 42.9603H40.6484C41.1404 42.9603 41.5387 42.562 41.5387 42.07V27.5806H53.695V48.0499H19.3034V27.5798H31.4597V42.0692C31.4597 42.5612 31.8588 42.9603 32.35 42.9603ZM39.7581 19.1933V41.1797H33.2403V19.1933C33.2403 18.7013 32.842 18.303 32.35 18.303H28.857L36.4992 9.77756L44.1414 18.303H40.6484C40.1564 18.303 39.7581 18.7013 39.7581 19.1933ZM59.5836 69.868C58.9234 70.7147 57.9077 71.2202 56.8659 71.2202H16.1326C15.0907 71.2202 14.075 70.7147 13.4148 69.868C12.9546 69.2785 12.7189 68.581 12.7293 67.8835H60.2692C60.2795 68.581 60.043 69.2785 59.5836 69.868ZM30.0671 66.1029L30.9312 61.9639H42.0672L42.9313 66.1029H30.0671ZM59.9026 66.1029H44.75L43.6621 60.8919C43.5756 60.4793 43.2122 60.1833 42.7908 60.1833H30.2076C29.7862 60.1833 29.422 60.4793 29.3363 60.8919L28.2484 66.1029H13.0958L16.5483 52.3887H56.4501L59.9026 66.1029ZM43.382 36.7218C43.382 36.2298 43.7803 35.8315 44.2723 35.8315H50.9607C51.4526 35.8315 51.851 36.2298 51.851 36.7218C51.851 37.2138 51.4526 37.6121 50.9607 37.6121H44.2723C43.7811 37.6121 43.382 37.213 43.382 36.7218ZM43.382 40.7917C43.382 40.2997 43.7803 39.9014 44.2723 39.9014H50.9607C51.4526 39.9014 51.851 40.2997 51.851 40.7917C51.851 41.2836 51.4526 41.682 50.9607 41.682H44.2723C43.7811 41.682 43.382 41.2828 43.382 40.7917ZM29.6164 44.8615C29.6164 45.3535 29.2181 45.7519 28.7261 45.7519H22.0377C21.5458 45.7519 21.1474 45.3535 21.1474 44.8615C21.1474 44.3696 21.5458 43.9712 22.0377 43.9712H28.7261C29.2173 43.9712 29.6164 44.3696 29.6164 44.8615ZM43.382 44.8615C43.382 44.3696 43.7803 43.9712 44.2723 43.9712H50.9607C51.4526 43.9712 51.851 44.3696 51.851 44.8615C51.851 45.3535 51.4526 45.7519 50.9607 45.7519H44.2723C43.7811 45.7519 43.382 45.3527 43.382 44.8615ZM29.6164 36.7218C29.6164 37.2138 29.2181 37.6121 28.7261 37.6121H22.0377C21.5458 37.6121 21.1474 37.2138 21.1474 36.7218C21.1474 36.2298 21.5458 35.8315 22.0377 35.8315H28.7261C29.2173 35.8315 29.6164 36.2298 29.6164 36.7218ZM29.6164 40.7917C29.6164 41.2836 29.2181 41.682 28.7261 41.682H22.0377C21.5458 41.682 21.1474 41.2836 21.1474 0.7917C21.1474 40.2997 21.5458 39.9014 22.0377 39.9014H28.7261C29.2173 39.9014 29.6164 40.2997 29.6164 40.7917Z" fill="white"/>
</g>
<defs>
<clipPath id="clip0_1_2">
<rect width="73" height="73" fill="white"/>
</clipPath>
</defs>
</svg>
