<svg width="70" height="70" viewBox="0 0 70 70" fill="none" xmlns="http://www.w3.org/2000/svg">
<path d="M65 0H5C3.67392 0 2.40215 0.526784 1.46447 1.46447C0.526784 2.40215 0 3.67392 0 5V65C0 66.3261 0.526784 67.5978 1.46447 68.5355C2.40215 69.4732 3.67392 70 5 70H65C66.3261 70 67.5978 69.4732 68.5355 68.5355C69.4732 67.5978 70 66.3261 70 65V5C70 3.67392 69.4732 2.40215 68.5355 1.46447C67.5978 0.526784 66.3261 0 65 0ZM5 3.33333H65C65.442 3.33333 65.866 3.50893 66.1785 3.82149C66.4911 4.13405 66.6667 4.55797 66.6667 5V10H35C34.7391 10.0016 34.4822 10.0644 34.25 10.1833L27.9333 13.3333H3.33333V5C3.33333 4.55797 3.50893 4.13405 3.82149 3.82149C4.13405 3.50893 4.55797 3.33333 5 3.33333ZM65 66.6667H5C4.55797 66.6667 4.13405 66.4911 3.82149 66.1785C3.50893 65.866 3.33333 65.442 3.33333 65V16.6667H28.3333C28.5942 16.6651 28.8511 16.6023 29.0833 16.4833L35.4 13.3333H66.6667V65C66.6667 65.442 66.4911 65.866 66.1785 66.1785C65.866 66.4911 65.442 66.6667 65 66.6667Z" fill="white"/>
<path d="M50 8.33333H60C60.4421 8.33333 60.866 8.15774 61.1786 7.84518C61.4911 7.53262 61.6667 7.10869 61.6667 6.66667C61.6667 6.22464 61.4911 5.80072 61.1786 5.48816C60.866 5.1756 60.4421 5 60 5H50C49.558 5 49.1341 5.1756 48.8215 5.48816C48.509 5.80072 48.3334 6.22464 48.3334 6.66667C48.3334 7.10869 48.509 7.53262 48.8215 7.84518C49.1341 8.15774 49.558 8.33333 50 8.33333Z" fill="white"/>
<path d="M10 10.8334C11.3807 10.8334 12.5 9.71409 12.5 8.33337C12.5 6.95266 11.3807 5.83337 10 5.83337C8.61929 5.83337 7.5 6.95266 7.5 8.33337C7.5 9.71409 8.61929 10.8334 10 10.8334Z" fill="white"/>
<path d="M18.3334 10.8334C19.7141 10.8334 20.8334 9.71409 20.8334 8.33337C20.8334 6.95266 19.7141 5.83337 18.3334 5.83337C16.9527 5.83337 15.8334 6.95266 15.8334 8.33337C15.8334 9.71409 16.9527 10.8334 18.3334 10.8334Z" fill="white"/>
<path d="M26.6666 10.8334C28.0473 10.8334 29.1666 9.71409 29.1666 8.33337C29.1666 6.95266 28.0473 5.83337 26.6666 5.83337C25.2859 5.83337 24.1666 6.95266 24.1666 8.33337C24.1666 9.71409 25.2859 10.8334 26.6666 10.8334Z" fill="white"/>
<path d="M41.3002 46.3832C42.1773 46.5671 43.0707 46.662 43.9669 46.6666C46.4181 46.6765 48.8159 45.9507 50.8502 44.5832C53.6179 42.7601 55.5482 39.9126 56.2169 36.6666C56.31 36.1811 56.2941 35.6811 56.1701 35.2025C56.0462 34.724 55.8173 34.2791 55.5002 33.8999C55.1729 33.4999 54.761 33.1774 54.2941 32.9555C53.8273 32.7336 53.3171 32.6178 52.8002 32.6166H45.7669C45.7315 32.6166 45.6976 32.6025 45.6726 32.5775C45.6476 32.5525 45.6336 32.5186 45.6336 32.4832V25.3832C45.6378 24.8671 45.5263 24.3566 45.307 23.8893C45.0878 23.422 44.7666 23.0099 44.3669 22.6832C43.9955 22.3756 43.5617 22.1522 43.0956 22.0284C42.6294 21.9047 42.142 21.8836 41.6669 21.9666C40.0355 22.2838 38.4839 22.9237 37.103 23.8485C35.7222 24.7734 34.5399 25.9646 33.6256 27.3525C32.7112 28.7403 32.0832 30.2967 31.7784 31.9305C31.4735 33.5642 31.4979 35.2424 31.8502 36.8666C32.3547 39.1885 33.5122 41.3179 35.1865 43.0039C36.8607 44.69 38.9819 45.8625 41.3002 46.3832ZM36.3669 29.1666C37.7186 27.1321 39.8227 25.7174 42.2169 25.2332C42.2403 25.2513 42.2597 25.2739 42.274 25.2996C42.2884 25.3254 42.2973 25.3539 42.3002 25.3832V32.3999C42.3002 33.3193 42.6655 34.2011 43.3156 34.8512C43.9657 35.5013 44.8475 35.8666 45.7669 35.8666H52.8002C52.8002 35.8666 52.9169 35.8666 52.9336 35.9499C52.7001 37.1472 52.2291 38.2855 51.5485 39.2978C50.8679 40.3101 49.9914 41.1758 48.9708 41.8438C47.9501 42.5118 46.806 42.9685 45.6059 43.1871C44.4059 43.4058 43.1742 43.3818 41.9836 43.1166C40.5379 42.796 39.192 42.128 38.0625 41.1705C36.9329 40.213 36.0535 38.9948 35.5004 37.6211C34.9474 36.2475 34.7372 34.7598 34.8882 33.2867C35.0392 31.8136 35.5467 30.3995 36.3669 29.1666Z" fill="white"/>
<path d="M51.7669 16.5666C51.2789 16.4709 50.7756 16.4856 50.294 16.6096C49.8124 16.7336 49.3646 16.9638 48.9835 17.2833C48.5814 17.6124 48.2575 18.027 48.0355 18.4969C47.8136 18.9668 47.699 19.4803 47.7002 20V27C47.7002 27.9194 48.0654 28.8011 48.7156 29.4513C49.3657 30.1014 50.2475 30.4666 51.1669 30.4666H58.1835C58.6989 30.4662 59.2079 30.3526 59.6745 30.1337C60.141 29.9148 60.5538 29.596 60.8835 29.2C61.2147 28.8246 61.4571 28.3795 61.5927 27.8976C61.7283 27.4158 61.7537 26.9096 61.6669 26.4166C61.176 23.9797 59.9733 21.7431 58.2111 19.9898C56.4489 18.2365 54.2063 17.0452 51.7669 16.5666ZM58.1835 27.1333H51.1669C51.1315 27.1333 51.0976 27.1192 51.0726 27.0942C51.0476 27.0692 51.0335 27.0353 51.0335 27V20C51.0317 19.9675 51.0405 19.9353 51.0585 19.9083C51.0765 19.8812 51.1029 19.8607 51.1335 19.85C52.9092 20.208 54.5396 21.0822 55.8204 22.3631C57.1013 23.6439 57.9755 25.2743 58.3335 27.05C58.3172 27.075 58.295 27.0957 58.2689 27.1103C58.2427 27.1248 58.2134 27.1327 58.1835 27.1333Z" fill="white"/>
<path d="M56.5169 50H9.85026C9.40823 50 8.98431 50.1756 8.67175 50.4882C8.35919 50.8007 8.18359 51.2246 8.18359 51.6667C8.18359 52.1087 8.35919 52.5326 8.67175 52.8452C8.98431 53.1577 9.40823 53.3333 9.85026 53.3333H56.5169C56.959 53.3333 57.3829 53.1577 57.6954 52.8452C58.008 52.5326 58.1836 52.1087 58.1836 51.6667C58.1836 51.2246 58.008 50.8007 57.6954 50.4882C57.3829 50.1756 56.959 50 56.5169 50Z" fill="white"/>
<path d="M56.5169 58.3334H9.85026C9.40823 58.3334 8.98431 58.509 8.67175 58.8215C8.35919 59.1341 8.18359 59.558 8.18359 60C8.18359 60.4421 8.35919 60.866 8.67175 61.1786C8.98431 61.4911 9.40823 61.6667 9.85026 61.6667H56.5169C56.959 61.6667 57.3829 61.4911 57.6954 61.1786C58.008 60.866 58.1836 60.4421 58.1836 60C58.1836 59.558 58.008 59.1341 57.6954 58.8215C57.3829 58.509 56.959 58.3334 56.5169 58.3334Z" fill="white"/>
<path d="M9.85026 28.3333H26.5169C26.959 28.3333 27.3829 28.1577 27.6954 27.8452C28.008 27.5326 28.1836 27.1087 28.1836 26.6667C28.1836 26.2246 28.008 25.8007 27.6954 25.4882C27.3829 25.1756 26.959 25 26.5169 25H9.85026C9.40823 25 8.98431 25.1756 8.67175 25.4882C8.35919 25.8007 8.18359 26.2246 8.18359 26.6667C8.18359 27.1087 8.35919 27.5326 8.67175 27.8452C8.98431 28.1577 9.40823 28.3333 9.85026 28.3333Z" fill="white"/>
<path d="M9.85026 36.6667H26.5169C26.959 36.6667 27.3829 36.4911 27.6954 36.1786C28.008 35.866 28.1836 35.4421 28.1836 35C28.1836 34.558 28.008 34.1341 27.6954 33.8215C27.3829 33.509 26.959 33.3334 26.5169 33.3334H9.85026C9.40823 33.3334 8.98431 33.509 8.67175 33.8215C8.35919 34.1341 8.18359 34.558 8.18359 35C8.18359 35.4421 8.35919 35.866 8.67175 36.1786C8.98431 36.4911 9.40823 36.6667 9.85026 36.6667Z" fill="white"/>
<path d="M9.85026 45H26.5169C26.959 45 27.3829 44.8244 27.6954 44.5118C28.008 44.1992 28.1836 43.7753 28.1836 43.3333C28.1836 42.8913 28.008 42.4673 27.6954 42.1548C27.3829 41.8422 26.959 41.6666 26.5169 41.6666H9.85026C9.40823 41.6666 8.98431 41.8422 8.67175 42.1548C8.35919 42.4673 8.18359 42.8913 8.18359 43.3333C8.18359 43.7753 8.35919 44.1992 8.67175 44.5118C8.98431 44.8244 9.40823 45 9.85026 45Z" fill="white"/>
</svg>
