<svg width="67" height="70" viewBox="0 0 67 70" fill="none" xmlns="http://www.w3.org/2000/svg">
<path d="M33.4732 0C19.7995 0 8.75117 11.1577 8.75117 24.7221V26.0347H6.56338C5.90704 26.0347 5.46948 26.4723 5.46948 27.1286V29.5352C2.40657 30.0822 0 32.8169 0 35.9892C0 39.2709 2.40657 42.0056 5.46948 42.4432V44.8498C5.46948 45.5061 5.90704 45.9437 6.56338 45.9437H11.9235V47.2563C11.9235 47.9127 12.361 48.3502 13.0174 48.3502H16.5178C19.2526 48.3502 21.5498 46.0531 21.5498 43.3183V28.6601C21.5498 25.9254 19.2526 23.6282 16.5178 23.6282H13.0174C12.361 23.6282 11.9235 24.0657 11.9235 24.7221V26.0347H10.8296V24.7221C10.8296 12.2516 21.0028 2.18779 33.3639 2.18779C45.8343 2.18779 55.8981 12.361 55.8981 24.7221V26.0347H54.8042V24.7221C54.8042 24.0657 54.3667 23.6282 53.7103 23.6282H50.4286C47.6939 23.6282 45.3967 25.9254 45.3967 28.6601V43.4277C45.3967 46.1624 47.6939 48.4596 50.4286 48.4596H52.7258C52.1789 56.992 45.2873 63.7742 36.7549 64.2117C36.208 62.2427 34.4577 60.7113 32.27 60.7113C29.754 60.7113 27.6756 62.7897 27.6756 65.3056C27.6756 67.8216 29.754 69.9 32.27 69.9C34.4577 69.9 36.3174 68.3685 36.7549 66.2901C46.8188 65.7432 54.9136 57.4296 54.9136 47.2563V45.9437H60.2737C60.93 45.9437 61.3676 45.5061 61.3676 44.8498V42.4432C64.4305 41.8962 66.8371 39.1615 66.8371 35.9892C66.8371 32.7075 64.4305 29.9728 61.3676 29.5352V27.1286C61.3676 26.4723 60.93 26.0347 60.2737 26.0347H58.1953V24.7221C58.1953 11.1577 47.1469 0 33.4732 0ZM2.18779 36.0986C2.18779 34.0202 3.60986 32.3793 5.46948 31.8324V40.3648C3.60986 39.8178 2.18779 38.0676 2.18779 36.0986ZM14.1113 25.816H16.5178C18.0493 25.816 19.362 27.1286 19.362 28.6601V43.4277C19.362 44.9592 18.0493 46.2718 16.5178 46.2718H14.1113C14.1113 42.0056 14.1113 29.754 14.1113 25.816ZM11.9235 43.8653H7.65728V28.2225H11.9235V43.8653ZM32.3793 67.8216C31.0667 67.8216 29.9728 66.7277 29.9728 65.415C29.9728 64.1023 31.0667 63.0084 32.3793 63.0084C33.692 63.0084 34.7859 64.1023 34.7859 65.415C34.7859 66.7277 33.692 67.8216 32.3793 67.8216ZM47.5845 43.4277V28.6601C47.5845 27.1286 48.8972 25.816 50.4286 25.816H52.8352C52.8352 29.9728 52.8352 42.115 52.8352 46.2718H50.4286C48.7878 46.2718 47.5845 44.9592 47.5845 43.4277ZM64.7587 36.0986C64.7587 38.177 63.3366 39.8178 61.477 40.3648V31.8324C63.3366 32.27 64.7587 34.0202 64.7587 36.0986ZM59.2892 43.8653H55.023V28.2225C55.1324 28.2225 59.3986 28.2225 59.2892 28.2225V43.8653Z" fill="white"/>
<path d="M21.6594 16.5178C21.2218 16.7366 21.0031 17.0647 21.0031 17.5023V20.784C21.0031 21.2215 21.2218 21.6591 21.6594 21.7685L23.6284 22.5342C23.7378 22.9718 23.9566 23.2999 24.066 23.7375L23.3002 25.5971C23.0815 26.0347 23.1908 26.4722 23.519 26.8004L25.8162 29.0976C26.1444 29.4258 26.5819 29.5352 27.0195 29.3164L28.8791 28.5506C29.2073 28.7694 29.6448 28.8788 30.0824 28.9882L30.8481 30.8478C31.0669 31.2854 31.3951 31.5042 31.8326 31.5042H35.1143C35.5519 31.5042 35.9894 31.2854 36.0988 30.8478L36.8646 28.9882C37.3021 28.8788 37.6303 28.66 38.0678 28.5506L39.9275 29.3164C40.365 29.5352 40.8026 29.4258 41.1307 29.0976L43.4279 26.8004C43.7561 26.4722 43.8655 26.0347 43.6467 25.5971L42.881 23.7375C43.0998 23.4093 43.2092 22.9718 43.3185 22.5342L45.1782 21.7685C45.6157 21.5497 45.8345 21.2215 45.8345 20.784V17.5023C45.8345 17.0647 45.6157 16.6272 45.1782 16.5178L43.2092 15.7521C43.0998 15.3145 42.881 14.9863 42.7716 14.5488L43.5373 12.6891C43.7561 12.2516 43.6467 11.814 43.3185 11.4859L41.0214 9.18868C40.6932 8.86051 40.2556 8.75112 39.8181 8.9699L37.9584 9.73563C37.6303 9.51685 37.1927 9.40746 36.7552 9.29807L35.9894 7.43844C35.7707 7.00088 35.4425 6.7821 35.0049 6.7821H31.7232C31.2857 6.7821 30.8481 7.00088 30.7387 7.43844L30.0824 9.29807C29.6448 9.40746 29.3167 9.62624 28.8791 9.73563L27.0195 8.9699C26.5819 8.75112 26.1444 8.86051 25.8162 9.18868L23.519 11.4859C23.1908 11.814 23.0815 12.2516 23.3002 12.6891L24.066 14.5488C23.8472 14.8769 23.7378 15.3145 23.6284 15.7521L21.6594 16.5178ZM24.9411 17.6117C25.2692 17.5023 25.488 17.1741 25.5974 16.846C25.8162 16.1896 26.035 15.6427 26.2538 15.2051C26.4725 14.8769 26.4725 14.5488 26.2538 14.2206L25.5974 12.5798L26.8007 11.3765L28.4415 12.1422C28.7697 12.2516 29.0979 12.2516 29.4261 12.1422C29.973 11.814 30.52 11.5952 31.0669 11.4859C31.3951 11.3765 31.6138 11.1577 31.8326 10.8295L32.489 9.07929H34.2392L34.8955 10.8295C35.0049 11.1577 35.3331 11.3765 35.6613 11.4859C36.3176 11.7046 36.8646 11.9234 37.4115 12.1422C37.7397 12.361 38.0678 12.361 38.396 12.1422L40.0369 11.3765L41.2401 12.5798L40.4744 14.2206C40.365 14.5488 40.365 14.8769 40.4744 15.2051C40.8026 15.7521 41.0214 16.299 41.1307 16.846C41.2401 17.1741 41.4589 17.3929 41.7871 17.6117L43.5373 18.268V20.0183L41.7871 20.6746C41.4589 20.784 41.2401 21.1122 41.1307 21.4403C40.912 22.0967 40.6932 22.6436 40.4744 23.0812C40.2556 23.4093 40.2556 23.7375 40.4744 24.0657L41.2401 25.7065L40.0369 26.9098L38.396 26.3629C38.0678 26.2535 37.7397 26.2535 37.4115 26.3629C36.8646 26.691 36.3176 26.9098 35.6613 27.0192C35.3331 27.1286 35.1143 27.3474 34.8955 27.6755L34.2392 29.4258H32.489L31.8326 27.6755C31.7232 27.3474 31.3951 27.1286 31.0669 27.0192C30.52 26.9098 29.8636 26.5816 29.4261 26.3629C29.0979 26.1441 28.7697 26.1441 28.4415 26.3629L26.8007 27.1286L25.5974 25.9253L26.3631 24.2845C26.4725 23.9563 26.4725 23.6281 26.3631 23.2999C26.035 22.753 25.8162 22.206 25.7068 21.6591C25.5974 21.3309 25.3786 21.1122 25.0505 20.8934L23.3002 20.237V18.4868L24.9411 17.6117Z" fill="white"/>
<path d="M33.4732 23.7376C35.9891 23.7376 38.0675 21.6592 38.0675 19.1432C38.0675 16.6273 35.9891 14.5489 33.4732 14.5489C30.9572 14.5489 28.8788 16.6273 28.8788 19.1432C28.8788 21.6592 30.9572 23.7376 33.4732 23.7376ZM33.4732 16.7367C34.7858 16.7367 35.8797 17.8306 35.8797 19.1432C35.8797 20.4559 34.7858 21.5498 33.4732 21.5498C32.1605 21.5498 31.0666 20.4559 31.0666 19.1432C31.0666 17.8306 32.1605 16.7367 33.4732 16.7367Z" fill="white"/>
<path d="M25.488 43.8654H24.8317C24.1754 43.8654 23.7378 44.3029 23.7378 44.9593C23.7378 45.6156 24.1754 46.0532 24.8317 46.0532H25.488C26.1444 46.0532 26.5819 45.6156 26.5819 44.9593C26.5819 44.3029 26.1444 43.8654 25.488 43.8654Z" fill="white"/>
<path d="M30.4101 46.0532H31.0664C31.7227 46.0532 32.1603 45.6156 32.1603 44.9593C32.1603 44.3029 31.7227 43.8654 31.0664 43.8654H30.4101C29.7537 43.8654 29.3162 44.3029 29.3162 44.9593C29.3162 45.6156 29.8631 46.0532 30.4101 46.0532Z" fill="white"/>
<path d="M35.8795 46.0532H36.5359C37.1922 46.0532 37.6298 45.6156 37.6298 44.9593C37.6298 44.3029 37.1922 43.8654 36.5359 43.8654H35.8795C35.2232 43.8654 34.7856 44.3029 34.7856 44.9593C34.7856 45.6156 35.3326 46.0532 35.8795 46.0532Z" fill="white"/>
<path d="M41.4585 46.0532H42.1149C42.7712 46.0532 43.2088 45.6156 43.2088 44.9593C43.2088 44.3029 42.7712 43.8654 42.1149 43.8654H41.4585C40.8022 43.8654 40.3646 44.3029 40.3646 44.9593C40.3646 45.6156 40.8022 46.0532 41.4585 46.0532Z" fill="white"/>
<path d="M27.6753 40.6929H28.3317C28.988 40.6929 29.4256 40.2553 29.4256 39.599C29.4256 38.9427 28.988 38.5051 28.3317 38.5051H27.6753C27.019 38.5051 26.5814 38.9427 26.5814 39.599C26.5814 40.2553 27.019 40.6929 27.6753 40.6929Z" fill="white"/>
<path d="M33.1448 40.6929H33.8011C34.4575 40.6929 34.895 40.2553 34.895 39.599C34.895 38.9427 34.4575 38.5051 33.8011 38.5051H33.1448C32.4885 38.5051 32.0509 38.9427 32.0509 39.599C32.0509 40.2553 32.5979 40.6929 33.1448 40.6929Z" fill="white"/>
<path d="M38.6143 40.6929H39.2706C39.927 40.6929 40.3645 40.2553 40.3645 39.599C40.3645 38.9427 39.927 38.5051 39.2706 38.5051H38.6143C37.9579 38.5051 37.5204 38.9427 37.5204 39.599C37.5204 40.2553 38.0673 40.6929 38.6143 40.6929Z" fill="white"/>
</svg>
